<svg width="610" height="333" viewBox="0 0 610 333" fill="none" xmlns="http://www.w3.org/2000/svg">
<g clip-path="url(#clip0_5_1571)">
<path d="M173.397 95.4126H31.6518V190.918H173.397V95.4126Z" fill="white"/>
<path d="M173.859 191.371H31.1895V94.9504H173.859V191.38V191.371ZM32.114 190.446H172.935V95.8748H32.114V190.456V190.446Z" fill="#EBEBEB"/>
<path d="M45.3532 102.641C45.3532 104.444 43.8925 105.904 42.0897 105.904C40.2869 105.904 38.8262 104.444 38.8262 102.641C38.8262 100.839 40.2869 99.3782 42.0897 99.3782C43.8925 99.3782 45.3532 100.839 45.3532 102.641Z" fill="#37474F"/>
<path d="M58.6847 102.641C58.6847 104.444 57.224 105.904 55.4212 105.904C53.6184 105.904 52.1577 104.444 52.1577 102.641C52.1577 100.839 53.6184 99.3782 55.4212 99.3782C57.224 99.3782 58.6847 100.839 58.6847 102.641Z" fill="#EBEBEB"/>
<path d="M72.0066 102.641C72.0066 104.444 70.5459 105.904 68.7431 105.904C66.9404 105.904 65.4796 104.444 65.4796 102.641C65.4796 100.839 66.9404 99.3782 68.7431 99.3782C70.5459 99.3782 72.0066 100.839 72.0066 102.641Z" fill="#FFC727"/>
<path d="M173.397 109.333H31.6518V110.258H173.397V109.333Z" fill="#EBEBEB"/>
<path d="M600.518 162.041H458.773V257.546H600.518V162.041Z" fill="white"/>
<path d="M600.98 258.008H458.311V161.578H600.98V258.008ZM459.235 257.083H600.056V162.503H459.235V257.083Z" fill="#EBEBEB"/>
<path d="M472.465 169.269C472.465 171.071 471.004 172.532 469.201 172.532C467.398 172.532 465.938 171.071 465.938 169.269C465.938 167.466 467.398 166.006 469.201 166.006C471.004 166.006 472.465 167.466 472.465 169.269Z" fill="#37474F"/>
<path d="M485.796 169.269C485.796 171.071 484.336 172.532 482.533 172.532C480.73 172.532 479.269 171.071 479.269 169.269C479.269 167.466 480.73 166.006 482.533 166.006C484.336 166.006 485.796 167.466 485.796 169.269Z" fill="#EBEBEB"/>
<path d="M499.127 169.269C499.127 171.071 497.666 172.532 495.864 172.532C494.061 172.532 492.6 171.071 492.6 169.269C492.6 167.466 494.061 166.006 495.864 166.006C497.666 166.006 499.127 167.466 499.127 169.269Z" fill="#FFC727"/>
<path d="M600.518 175.961H458.773V176.886H600.518V175.961Z" fill="#EBEBEB"/>
<path d="M131.267 189.134C131.267 197.435 124.546 204.136 116.262 204.136C115.994 204.136 115.745 204.136 115.495 204.118C115.495 204.118 89.2207 204.173 88.7954 204.173C80.5026 204.173 73.7907 197.453 73.7907 189.171C73.7907 180.888 80.5119 174.168 88.7954 174.168H115.245C115.588 174.15 115.92 174.131 116.262 174.131C124.546 174.131 131.267 180.851 131.267 189.134Z" fill="#A6A6A6"/>
<path d="M88.9617 189.633C88.9617 189.051 89.1836 188.542 89.4795 188.071C89.6089 187.858 89.7568 187.655 89.8955 187.451L90.8015 186.546C91.1528 186.296 91.4949 186.028 91.8554 185.788C93.3069 184.826 94.9155 184.272 96.6074 183.939C100.546 183.162 104.484 183.181 108.423 183.957C110.096 184.29 111.686 184.836 113.119 185.778C113.489 186.028 113.849 186.296 114.21 186.555L115.088 187.424C115.31 187.775 115.56 188.099 115.735 188.468C115.902 188.81 115.976 189.199 116.105 189.596C115.967 189.605 115.902 189.614 115.837 189.614C113.35 189.614 110.863 189.614 108.376 189.624C108.228 189.624 108.145 189.578 108.08 189.448C107.6 188.588 106.869 188.108 105.871 188.043C103.624 187.904 101.378 187.895 99.122 188.043C98.1328 188.108 97.4025 188.598 96.9217 189.457C96.8662 189.559 96.8108 189.633 96.6721 189.633C94.1482 189.633 91.6243 189.633 89.1004 189.633C89.0634 189.633 89.0264 189.633 88.971 189.624L88.9617 189.633Z" fill="white"/>
<path d="M88.9526 193.996C88.9526 193.118 88.9526 192.24 88.9526 191.362C88.9526 191.297 88.9526 191.223 88.9526 191.177C91.5042 191.177 94.0373 191.177 96.5982 191.177C96.5982 191.343 96.5705 191.537 96.5705 191.741C96.5705 192.489 96.5705 193.238 96.5705 193.987C96.5705 194.634 96.2469 194.957 95.5998 194.957C93.7045 194.957 91.8 194.957 89.9048 194.957C89.2669 194.957 88.9526 194.634 88.9433 193.996H88.9526Z" fill="white"/>
<path d="M108.423 194.033C108.432 193.072 108.469 192.12 108.497 191.158C110.947 191.158 113.48 191.158 116.031 191.149C116.031 191.195 116.041 191.251 116.041 191.315C116.041 192.212 116.041 193.099 116.041 193.987C116.041 194.597 115.717 194.92 115.107 194.92C113.184 194.92 111.261 194.92 109.347 194.92C108.765 194.92 108.413 194.597 108.423 194.024V194.033Z" fill="white"/>
<path d="M592.42 165.008C591.588 163.668 591.634 161.994 592.447 160.654C592.669 160.284 592.882 159.915 593.085 159.536C593.289 159.147 593.483 158.768 593.668 158.371C594.333 156.957 595.702 155.995 597.264 155.949L602.626 155.783L602.081 138.322L596.682 138.488C595.119 138.534 593.695 137.656 592.946 136.288C592.54 135.548 592.096 134.818 591.615 134.125C590.718 132.822 590.561 131.149 591.31 129.753L593.834 125.038L578.432 116.784L575.908 121.498C575.159 122.894 573.68 123.698 572.099 123.661C571.248 123.643 570.398 123.67 569.557 123.744C567.994 123.883 566.478 123.181 565.655 121.849L562.808 117.265L547.96 126.471L550.798 131.047C551.612 132.359 551.603 134.005 550.798 135.327C550.567 135.715 550.336 136.103 550.123 136.501C549.911 136.898 549.707 137.305 549.513 137.711C548.857 139.117 547.479 140.032 545.926 140.078L540.564 140.244L541.11 157.705L546.453 157.539C547.997 157.493 549.449 158.297 550.179 159.656C550.623 160.469 551.113 161.255 551.64 162.022C552.518 163.279 552.601 164.934 551.871 166.293L549.347 171.007L564.749 179.262L567.273 174.547C568.022 173.152 569.501 172.347 571.091 172.384C571.942 172.403 572.792 172.375 573.643 172.301C575.205 172.172 576.721 172.865 577.554 174.196L580.382 178.772L595.23 169.565L592.41 165.017L592.42 165.008ZM566.543 161.412C557.732 158.029 554.506 147.353 559.979 139.662C563.704 134.43 570.675 132.332 576.675 134.633C585.486 138.017 588.703 148.665 583.23 156.365C579.504 161.606 572.543 163.714 566.543 161.412Z" fill="#EBEBEB"/>
<path d="M530.671 113.382C529.719 112.827 529.192 111.783 529.248 110.683C529.266 110.387 529.266 110.082 529.266 109.786C529.266 109.491 529.266 109.176 529.248 108.88C529.192 107.78 529.719 106.736 530.671 106.191L533.926 104.314L527.805 93.7117L524.551 95.5882C523.599 96.1428 522.425 96.0873 521.5 95.4772C520.992 95.1445 520.465 94.8394 519.919 94.5621C518.939 94.063 518.311 93.0739 518.311 91.9739V88.2302H506.07V91.9739C506.07 93.0739 505.442 94.063 504.462 94.5621C503.916 94.8394 503.389 95.1445 502.881 95.4772C501.956 96.0781 500.782 96.1335 499.83 95.5882L496.576 93.7117L490.455 104.314L493.719 106.2C494.671 106.745 495.189 107.79 495.133 108.89C495.115 109.186 495.115 109.491 495.115 109.786C495.115 110.082 495.115 110.387 495.133 110.683C495.189 111.783 494.662 112.837 493.71 113.382L490.446 115.259L496.566 125.861L499.811 123.985C500.764 123.43 501.938 123.485 502.862 124.086C503.371 124.419 503.898 124.724 504.443 125.001C505.423 125.5 506.052 126.49 506.052 127.59V131.333H518.292V127.59C518.292 126.49 518.921 125.5 519.901 125.001C520.446 124.724 520.973 124.419 521.482 124.086C522.406 123.485 523.58 123.43 524.533 123.985L527.778 125.861L533.898 115.259L530.644 113.382H530.671ZM512.2 119.806C506.662 119.806 502.169 115.314 502.169 109.777C502.169 104.24 506.662 99.757 512.2 99.757C517.738 99.757 522.221 104.24 522.221 109.777C522.221 115.314 517.738 119.806 512.2 119.806Z" fill="#EBEBEB"/>
<path d="M86.6877 84.9859L92.8079 95.5883L96.0529 93.7118C97.0052 93.1572 98.1793 93.2127 99.1038 93.8135C99.6123 94.1463 100.139 94.4513 100.685 94.7286C101.665 95.2278 102.293 96.2169 102.293 97.3168V101.061H114.534V97.3168C114.534 96.2169 115.162 95.2278 116.142 94.7286C116.688 94.4513 117.215 94.1463 117.723 93.8135C118.648 93.2127 119.822 93.1572 120.774 93.7118L124.019 95.5883L130.139 84.9859L126.876 83.1094C125.924 82.5548 125.397 81.5103 125.452 80.4103C125.471 80.1145 125.471 79.8094 125.471 79.5136C125.471 79.2178 125.471 78.9128 125.452 78.617C125.397 77.517 125.914 76.4817 126.867 75.9271L130.13 74.0414L124.01 63.439L120.756 65.3154C119.803 65.8701 118.629 65.8146 117.705 65.2045C117.196 64.8717 116.669 64.5667 116.124 64.2894C115.144 63.7902 114.515 62.8012 114.515 61.7012V57.9575H102.275V61.7012C102.275 62.8012 101.646 63.7902 100.666 64.2894C100.121 64.5667 99.5938 64.8717 99.0853 65.2045C98.1608 65.8054 96.9867 65.8608 96.0344 65.3154L92.7802 63.439L86.66 74.0414L89.9142 75.9179C90.8665 76.4632 91.3934 77.5078 91.338 78.6078C91.3195 78.9036 91.3195 79.2086 91.3195 79.5136C91.3195 79.8187 91.3195 80.1145 91.338 80.4103C91.3934 81.5103 90.8665 82.564 89.9142 83.1094L86.66 84.9859H86.6877ZM98.3919 79.5136C98.3919 73.9767 102.876 69.4936 108.414 69.4936C113.951 69.4936 118.444 73.9767 118.444 79.5136C118.444 85.0506 113.951 89.543 108.414 89.543C102.876 89.543 98.3919 85.0506 98.3919 79.5136Z" fill="#EBEBEB"/>
<path d="M330.895 94.6749C338.149 65.541 320.409 36.0435 291.27 28.7905C262.132 21.5374 232.63 39.2753 225.376 68.4091C218.122 97.543 235.862 127.04 265.001 134.294C294.139 141.547 323.641 123.809 330.895 94.6749Z" fill="#EBEBEB"/>
<path d="M318.354 91.6053C323.922 69.375 310.412 46.8405 288.178 41.2731C265.944 35.7058 243.406 49.2138 237.838 71.4441C232.27 93.6743 245.78 116.209 268.014 121.776C290.247 127.344 312.785 113.836 318.354 91.6053Z" fill="white"/>
<path d="M306.886 88.7918C310.89 72.9116 301.261 56.7925 285.378 52.7889C269.495 48.7853 253.374 58.4133 249.369 74.2936C245.365 90.1739 254.995 106.293 270.877 110.297C286.76 114.3 302.882 104.672 306.886 88.7918Z" fill="#EBEBEB"/>
<path d="M294.001 85.5557C296.227 76.7824 290.919 67.8654 282.145 65.6389C273.37 63.4124 264.452 68.7196 262.225 77.4928C259.998 86.2661 265.306 95.1831 274.081 97.4096C282.855 99.6361 291.774 94.3289 294.001 85.5557Z" fill="white"/>
<path d="M285.324 83.3798C286.336 79.4125 283.94 75.376 279.972 74.3641C276.004 73.3521 271.967 75.7478 270.955 79.7151C269.943 83.6823 272.339 87.7188 276.307 88.7308C280.275 89.7428 284.312 87.347 285.324 83.3798Z" fill="#EBEBEB"/>
<path d="M343.932 14.2242L281.651 76.4949L283.148 77.9917L345.429 15.721L343.932 14.2242Z" fill="#C7C7C7"/>
<path d="M286.251 79.3564L278.106 81.5379L280.288 73.3943L286.251 79.3564Z" fill="#A6A6A6"/>
<path d="M355.099 10.926L343.423 22.6007L334.261 25.3922L337.053 16.2318L348.729 4.55713L345.937 13.7176L355.099 10.926Z" fill="#A6A6A6"/>
<path d="M0.190918 304.124L76.3886 303.902L152.595 303.819L305 303.662L457.405 303.819L533.602 303.893L609.809 304.124L533.602 304.346L457.405 304.429L305 304.586L152.595 304.429L76.3886 304.346L0.190918 304.124Z" fill="#263238"/>
<path d="M193.024 309.578H65.6181L55.7536 223.058H183.16L193.024 309.578Z" fill="#37474F"/>
<path d="M186.081 303.773H71.2388L62.6964 228.854H177.538L186.081 303.773Z" fill="white"/>
<path d="M265.043 303.773H134.272V309.578H265.043V303.773Z" fill="#37474F"/>
<path d="M265.033 303.773H199.218V309.578H265.033V303.773Z" fill="#263238"/>
<path d="M145.514 228.863L71.1744 303.191L68.9556 283.751L123.843 228.863H145.514Z" fill="#EBEBEB"/>
<path d="M184.139 286.709L167.073 303.773H145.403L181.921 267.261L184.139 286.709Z" fill="#EBEBEB"/>
<path d="M76.9248 228.863L64.1574 241.628L63.3993 235.001L69.538 228.863H76.9248Z" fill="#EBEBEB"/>
<path d="M180.497 254.763L131.48 303.773H124.084L179.739 248.126L180.497 254.763Z" fill="#EBEBEB"/>
<path d="M86.5581 228.863L65.1374 250.28L64.9525 248.616L84.7091 228.863H86.5581Z" fill="#EBEBEB"/>
<path d="M156.137 228.863L81.2147 303.773H79.3657L154.288 228.863H156.137Z" fill="#EBEBEB"/>
<path d="M179.249 243.81L119.277 303.773H117.428L179.064 242.146L179.249 243.81Z" fill="#EBEBEB"/>
<path d="M416.218 309.578H543.624L553.488 223.058H426.082L416.218 309.578Z" fill="#37474F"/>
<path d="M423.161 303.773H538.012L546.545 228.854H431.704L423.161 303.773Z" fill="white"/>
<path d="M474.979 303.773H344.208V309.578H474.979V303.773Z" fill="#37474F"/>
<path d="M410.024 303.773H344.208V309.578H410.024V303.773Z" fill="#263238"/>
<path d="M543.245 257.879L540.453 282.337L519.014 303.773H497.343L543.245 257.879Z" fill="#EBEBEB"/>
<path d="M502.521 228.863L427.608 303.773H423.161L425.38 284.334L480.859 228.863H502.521Z" fill="#EBEBEB"/>
<path d="M453.716 228.863L428.875 253.7L429.827 245.353L446.32 228.863H453.716Z" fill="#EBEBEB"/>
<path d="M535.433 228.863L460.511 303.773H453.115L528.037 228.863H535.433Z" fill="#EBEBEB"/>
<path d="M544.308 248.542L544.077 250.632L490.927 303.773H489.078L544.308 248.542Z" fill="#EBEBEB"/>
<path d="M543.19 228.863L468.277 303.773H466.428L541.35 228.863H543.19Z" fill="#EBEBEB"/>
<path d="M473.408 228.863L426.332 275.931L426.573 273.842L471.559 228.863H473.408Z" fill="#EBEBEB"/>
<path d="M183.992 179.28C199.801 211.179 223.191 243.014 229.468 249.032C246.312 265.199 291.28 276.818 304.529 277.179C310.251 277.336 318.165 239.326 313.949 234.889C309.733 230.452 254.208 218.389 251.231 216.106C249.16 214.526 222.682 189.355 205.126 174.408C183.307 155.838 179.85 170.896 184.001 179.27L183.992 179.28Z" fill="#F7A9A0"/>
<path d="M301.69 229.621L287.36 274.868C287.36 274.868 240.368 262.454 227.795 250.409C215.221 238.365 189.178 195.04 184.093 180.777C179.009 166.514 182.318 155.228 205.311 173.752C228.303 192.267 247.884 211.207 251.961 214.258C256.048 217.308 301.681 229.621 301.681 229.621H301.69Z" fill="#455A64"/>
<path d="M287.129 231.432C287.323 232.699 288.498 233.558 289.764 233.373C291.031 233.179 291.891 232.005 291.706 230.739C291.511 229.472 290.337 228.613 289.071 228.798C287.804 228.992 286.944 230.166 287.129 231.432Z" fill="#263238"/>
<path d="M275.62 228.114C275.814 229.38 276.988 230.24 278.254 230.055C279.521 229.87 280.381 228.687 280.196 227.421C280.002 226.154 278.828 225.294 277.561 225.479C276.294 225.673 275.435 226.847 275.62 228.114Z" fill="#263238"/>
<path d="M252.692 263.656C242.402 259.662 232.593 255.013 227.795 250.419C215.221 238.365 189.178 195.049 184.093 180.777C180.839 171.654 181.015 163.76 187.579 164.083L252.692 263.656Z" fill="#263238"/>
<path d="M109.061 303.754L227.674 303.782C228.146 299.447 203.739 178.605 192.127 163.455C189.64 160.219 181.44 159.314 174.469 160.182C172.537 160.414 170.707 160.783 169.107 161.282C169.07 161.301 169.005 161.319 168.931 161.329C167.314 161.856 165.936 162.503 164.984 163.261C145.597 178.734 108.127 302.701 109.061 303.764V303.754Z" fill="#455A64"/>
<path d="M182.475 190.77L187.523 180.953L194.022 188.052L192.432 195.114L186.007 195.946L182.475 190.77Z" fill="#263238"/>
<path d="M186.007 195.946L182.937 268.167L196.472 292.043L203.498 265.172L192.432 195.114L186.007 195.946Z" fill="#263238"/>
<path d="M185.822 179.64C183.955 179.566 171.566 169.879 167.757 162.327C167.498 161.809 168.46 156.476 169.311 149.95C169.819 145.984 170.281 141.557 170.42 137.49C170.448 136.658 173.24 138.284 173.24 138.284L178.463 139.736L195.751 144.552C195.751 144.552 192.959 153 192.765 160.099C192.756 160.691 192.793 161.246 192.885 161.773C192.885 161.846 192.913 161.939 192.913 162.05C193.32 165.239 188.882 179.77 185.822 179.65V179.64Z" fill="#F7A9A0"/>
<path d="M192.886 161.763C192.886 161.837 192.913 161.93 192.913 162.041C192.109 162.124 191.24 162.142 190.288 162.096C173.101 161.135 171.687 139.209 171.687 139.209L178.473 139.727L195.761 144.543C195.761 144.543 192.969 152.991 192.775 160.09C192.765 160.682 192.802 161.237 192.895 161.763H192.886Z" fill="#263238"/>
<path d="M166.408 107.577C163.819 116.691 169.098 142.758 175.653 148.471C185.157 156.753 200.467 157.271 207.437 145.901C214.196 134.883 206.707 101.033 199.413 95.8654C188.661 88.2579 170.235 94.1184 166.408 107.577Z" fill="#F7A9A0"/>
<path d="M192.238 122.746C192.21 122.681 192.118 122.857 192.136 122.931C192.543 124.678 192.709 126.748 191.23 127.645C191.184 127.673 191.202 127.756 191.267 127.738C193.153 127.081 192.903 124.336 192.247 122.746H192.238Z" fill="#263238"/>
<path d="M190.306 121.221C187.44 121.563 188.337 127.275 190.99 126.961C193.606 126.647 192.709 120.934 190.306 121.221Z" fill="#263238"/>
<path d="M202.527 121.424C202.527 121.35 202.675 121.489 202.685 121.563C202.906 123.338 203.461 125.343 205.153 125.676C205.208 125.685 205.218 125.778 205.153 125.778C203.156 125.806 202.444 123.143 202.518 121.424H202.527Z" fill="#263238"/>
<path d="M203.822 119.326C206.632 118.66 207.76 124.336 205.153 124.955C202.592 125.565 201.464 119.89 203.822 119.326Z" fill="#263238"/>
<path d="M187.643 118.965C188.392 118.651 189.03 118.226 189.733 117.838C190.528 117.394 191.212 117.126 191.646 116.285C191.877 115.832 191.646 115.12 191.221 114.852C190.241 114.223 189.132 114.528 188.152 115.018C187.088 115.554 186.404 116.238 185.914 117.32C185.443 118.374 186.654 119.39 187.643 118.965Z" fill="#263238"/>
<path d="M205.578 116.109C204.765 116.109 204.016 115.961 203.212 115.878C202.306 115.776 201.575 115.795 200.845 115.185C200.457 114.852 200.401 114.112 200.678 113.696C201.335 112.744 202.481 112.587 203.572 112.661C204.765 112.744 205.652 113.105 206.521 113.918C207.363 114.704 206.632 116.109 205.569 116.109H205.578Z" fill="#263238"/>
<path d="M193.181 139.44C193.671 139.791 194.179 140.29 194.836 140.244C195.464 140.198 196.139 139.81 196.666 139.495C196.722 139.468 196.786 139.514 196.759 139.579C196.407 140.327 195.501 140.91 194.66 140.891C193.837 140.873 193.329 140.244 193.024 139.542C192.977 139.44 193.107 139.385 193.181 139.431V139.44Z" fill="#263238"/>
<path d="M199.93 135.086C199.93 135.086 198.978 136.907 197.415 137.758C196.842 138.072 196.195 138.266 195.483 138.183C194.013 138.035 193.773 136.741 193.856 135.595C193.921 134.652 194.226 133.792 194.226 133.792C194.226 133.792 196.592 135.401 199.939 135.086H199.93Z" fill="white"/>
<path d="M194.216 133.848C195.446 135.225 197.036 135.835 198.663 135.9C199.384 135.928 200.133 135.835 200.845 135.659C200.984 135.632 201.132 135.595 201.252 135.549C201.381 135.512 201.492 135.475 201.631 135.428C201.834 135.364 201.918 135.179 201.927 134.975C201.918 134.901 201.908 134.846 201.881 134.781L201.853 134.615C201.677 133.247 201.215 131.195 201.215 131.195C201.751 131.37 204.469 132.11 204.321 131.407C203.045 125.565 201.622 119.076 199.116 113.53C199.042 113.345 198.756 113.438 198.802 113.623C199.81 119.28 201.807 124.724 202.907 130.4C202.047 130.224 200.632 129.854 199.93 129.984C199.745 130.067 200.882 133.931 200.919 134.559C200.919 134.559 200.919 134.587 200.919 134.624C198.673 135.28 196.842 134.855 194.374 133.672C194.226 133.589 194.105 133.737 194.235 133.857L194.216 133.848Z" fill="#263238"/>
<path d="M169.477 127.904C175.699 126.97 175.264 115.49 175.264 115.49C175.264 115.49 185.702 112.18 186.081 103.898C186.081 103.898 197.175 108.899 204.738 104.841C212.3 100.783 209.305 92.0016 208.14 90.1991C206.975 88.3966 203.073 92.6302 203.073 92.6302C203.073 92.6302 201.825 87.5924 200.383 87.2781C198.941 86.9546 197.915 90.2638 197.915 90.2638C197.915 90.2638 187.126 88.3134 177.834 89.9403C168.543 91.5672 165.298 101.643 165.298 101.643C165.298 101.643 160.463 103.427 159.354 107.161C158.244 110.896 165.52 128.495 169.486 127.904H169.477Z" fill="#263238"/>
<path d="M172.759 115.942C181.19 115.832 185.877 109.537 185.924 101.439C185.924 101.338 186.071 101.328 186.081 101.43C186.922 108.843 181.227 118.078 172.74 116.321C172.537 116.275 172.546 115.952 172.768 115.942H172.759Z" fill="#263238"/>
<path d="M165.492 101.467C165.585 101.43 165.649 101.569 165.566 101.624C163.412 103.039 160.87 104.231 159.557 106.57C157.967 109.407 158.873 112.689 160.028 115.471C161.822 119.797 164.984 125.288 169.384 127.34C169.634 127.46 169.449 127.83 169.19 127.728C163.967 125.593 160.056 118.438 158.623 113.253C157.015 107.448 160.204 103.538 165.483 101.467H165.492Z" fill="#263238"/>
<path d="M195.483 104.887C199.449 106.551 204.867 105.858 208.075 102.835C211.976 99.1561 210.322 94.2847 207.825 90.3747C207.705 90.1806 207.964 89.9218 208.14 90.0974C211.255 93.3974 212.281 98.9528 209.175 102.632C205.976 106.431 199.57 107.263 195.206 105.433C194.836 105.275 195.113 104.73 195.483 104.878V104.887Z" fill="#263238"/>
<path d="M190.768 133.127C187.347 133.256 184.13 131.065 183.122 127.636C181.93 123.578 184.25 119.307 188.309 118.106C192.367 116.904 196.638 119.234 197.84 123.291C199.033 127.349 196.712 131.62 192.654 132.822C192.025 133.006 191.396 133.108 190.768 133.127ZM190.222 118.827C189.686 118.845 189.131 118.938 188.595 119.095C185.082 120.13 183.067 123.837 184.102 127.349C185.138 130.862 188.845 132.877 192.358 131.842C195.871 130.807 197.887 127.1 196.851 123.587C195.973 120.62 193.19 118.716 190.222 118.827Z" fill="#455A64"/>
<path d="M208.139 130.317C205.209 130.428 202.435 127.525 201.816 123.569C201.502 121.572 201.779 119.603 202.592 118.023C203.434 116.386 204.737 115.351 206.281 115.111C207.825 114.871 209.378 115.453 210.682 116.756C211.939 118.013 212.799 119.807 213.104 121.803C213.751 125.981 211.754 129.771 208.648 130.261C208.482 130.289 208.315 130.307 208.149 130.307L208.139 130.317ZM206.817 116.091C206.688 116.091 206.559 116.109 206.429 116.128C205.227 116.313 204.183 117.154 203.498 118.494C202.787 119.89 202.546 121.637 202.824 123.412C203.388 127.035 205.921 129.651 208.482 129.254C211.033 128.856 212.651 125.584 212.087 121.97C211.81 120.186 211.052 118.596 209.942 117.486C208.999 116.534 207.899 116.044 206.817 116.091Z" fill="#455A64"/>
<path d="M197.711 124.207L196.934 123.532C197.933 122.386 200.392 120.675 202.546 122.367L201.918 123.171C199.985 121.655 197.804 124.105 197.711 124.207Z" fill="#455A64"/>
<path d="M164.253 131.416L163.283 131.093C163.43 130.64 164.826 126.638 167.036 125.926C169.098 125.26 182.882 124.41 183.464 124.382L183.529 125.408C179.582 125.648 168.95 126.388 167.36 126.906C165.899 127.377 164.632 130.326 164.263 131.426L164.253 131.416Z" fill="#455A64"/>
<path d="M173.443 129.068C173.443 129.068 167.203 120.842 163.44 123.106C159.686 125.362 164.614 137.452 169.181 138.95C173.748 140.447 175.227 136.251 175.227 136.251L173.443 129.078V129.068Z" fill="#F7A9A0"/>
<path d="M164.937 126.527C164.863 126.527 164.854 126.628 164.919 126.647C168.127 127.802 169.902 130.668 171.187 133.653C170.198 132.526 168.894 131.934 167.378 133.108C167.295 133.173 167.378 133.293 167.47 133.274C168.756 132.951 169.699 133.136 170.614 134.134C171.261 134.846 171.723 135.752 172.195 136.584C172.352 136.861 172.86 136.685 172.74 136.371C172.74 136.343 172.722 136.325 172.712 136.297C172.638 132.267 169.283 126.758 164.947 126.517L164.937 126.527Z" fill="#263238"/>
<path d="M192.978 162.382L186.802 177.533L168.09 158.398L162.765 164.518C162.765 164.518 181.042 194.892 181.163 193.524L187.412 180.528L196.371 189.596L195.687 166.875L192.978 162.382Z" fill="#455A64"/>
<path d="M196.666 178.346C196.426 174.603 196.297 170.822 195.881 167.087C195.862 166.958 195.659 166.893 195.622 167.051C194.864 170.665 195.853 184.992 195.825 188.431C195.816 188.422 195.797 188.403 195.788 188.394C195.418 188.006 187.486 180.417 187.403 180.537C186.053 182.598 181.468 192.064 181.153 192.923C178.26 188.098 167.184 170.554 163.754 165.997C163.652 165.867 163.449 165.969 163.532 166.126C166.084 171.219 180.746 194.837 180.978 194.772C181.135 194.892 186.83 183.236 187.514 181.036C188.854 182.691 196.861 191.25 196.888 190.696C197.082 186.934 196.907 182.118 196.676 178.365L196.666 178.346Z" fill="#263238"/>
<path d="M231.752 320.43L139.384 329.572L139.088 257.971L231.456 248.829L231.752 320.43Z" fill="#FFC727"/>
<path d="M169.237 247.073L139.005 250.058L139.088 257.971L171.437 254.772L169.237 247.073Z" fill="#FFC727"/>
<g opacity="0.1">
<path d="M231.752 320.43L139.384 329.572L139.088 257.971L231.456 248.829L231.752 320.43Z" fill="black"/>
<path d="M169.237 247.073L139.005 250.058L139.088 257.971L171.437 254.772L169.237 247.073Z" fill="black"/>
</g>
<path d="M231.687 320.439L142.601 329.258L129.862 257.462L224.817 249.485L231.687 320.439Z" fill="#EBEBEB"/>
<path d="M231.687 320.439L140.337 329.479L126.682 260.476L222.701 250.973L231.687 320.439Z" fill="white"/>
<path d="M231.52 320.448L138.95 329.618L125.443 262.103L218.013 252.933L231.52 320.448Z" fill="#FFC727"/>
<path d="M152.558 174.048C120.987 202.685 98.2069 252.064 98.9003 265.366C99.8248 282.938 131.665 312.989 152.401 321.687C157.653 323.887 177.936 280.96 170.263 278.732C162.164 276.375 143.434 259.394 142.528 258.627C140.577 256.982 155.674 219.425 161.988 196.63C169.116 170.887 165.853 162.003 152.568 174.057L152.558 174.048Z" fill="#F7A9A0"/>
<path d="M140.688 315.115C160.768 329.609 188.069 332.752 192.783 332.28C196.796 331.883 198.867 331.642 198.867 331.642C206.087 331.078 208.676 327.649 208.676 327.649C208.676 327.649 217.218 329.452 219.16 324.469C221.36 318.895 208.935 317.453 202.592 312.49C188.05 301.111 170.558 280.876 166.694 277.17L140.697 315.105L140.688 315.115Z" fill="#F7A9A0"/>
<path d="M178.962 311.279C183.307 314.542 187.495 317.86 192.257 320.522C197.489 323.434 203.008 325.366 208.574 327.473C208.75 327.538 208.676 327.788 208.491 327.751C197.804 325.541 186.395 319.32 178.657 311.648C178.472 311.463 178.74 311.121 178.953 311.288L178.962 311.279Z" fill="#263238"/>
<path d="M170.817 319.062C175.227 322.001 183.002 327.122 198.913 331.476C198.968 331.494 198.959 331.587 198.894 331.578C188.189 330.126 178.916 326.189 170.54 319.515C170.281 319.311 170.531 318.868 170.817 319.062Z" fill="#263238"/>
<path d="M185.924 297.672C184.62 295.444 185.776 294.742 190.056 296.424C194.392 298.116 209.841 308.395 212.975 302.682C216.127 296.951 194.022 282.762 186.682 280.507C179.341 278.233 166.675 277.17 166.675 277.17C170.42 280.793 178.666 290.462 185.924 297.663V297.672Z" fill="#F7A9A0"/>
<path d="M141.409 318.35L166.565 276.134C166.565 276.134 143.027 259.635 142.916 257.98C142.805 256.325 159.455 210.838 164.494 188.459C169.532 166.08 167.036 155.394 144.996 180.352C122.956 205.31 94.6938 247.304 96.1915 265.301C97.6892 283.298 141.418 318.369 141.418 318.369L141.409 318.35Z" fill="#455A64"/>
<path d="M160.306 209.849C159.391 211.448 158.411 213.019 157.588 214.664C157.32 215.201 157.052 215.737 156.783 216.273C156.987 215.626 157.199 214.979 157.403 214.332C158.697 210.274 159.945 206.197 161.036 202.084C161.064 201.982 160.907 201.918 160.861 202.019C157.948 209.007 155.554 216.208 153.169 223.39C150.765 230.619 148.509 237.903 146.355 245.215C145.153 249.3 143.914 253.395 142.971 257.546C142.953 257.638 143.082 257.666 143.11 257.583C144.497 254.024 145.671 250.373 146.873 246.758C148.075 243.135 149.286 239.521 150.469 235.897C152.346 230.111 154.204 224.324 156.053 218.528C156.894 217.484 157.458 216.245 158.069 215.043C158.919 213.361 159.612 211.614 160.371 209.886C160.389 209.839 160.324 209.802 160.297 209.849H160.306Z" fill="#263238"/>
<path d="M136.943 307.747C136.546 308.958 137.211 310.262 138.423 310.659C139.634 311.057 140.937 310.391 141.335 309.18C141.732 307.969 141.067 306.666 139.856 306.268C138.644 305.871 137.341 306.536 136.943 307.747Z" fill="#263238"/>
<path d="M128.151 299.613C127.754 300.824 128.419 302.127 129.631 302.525C130.842 302.922 132.145 302.257 132.543 301.046C132.94 299.835 132.275 298.532 131.063 298.134C129.852 297.737 128.549 298.402 128.151 299.613Z" fill="#263238"/>
<path d="M112.343 291.285C115.255 293.771 117.991 296.424 120.7 299.105C122.041 300.454 123.39 301.804 124.712 303.181C126.044 304.549 127.338 305.945 128.642 307.35C125.554 305.067 122.771 302.442 120.053 299.761C117.353 297.062 114.737 294.28 112.343 291.285Z" fill="#263238"/>
<path d="M434.384 100.718C436.362 94.3587 445.016 80.3639 458.985 84.5882C478.917 90.6151 478.159 130.058 487.118 143.211C503.352 167.06 501.882 189.004 486.526 191.084C469.321 193.413 454.649 173.798 458.967 134.772C461.666 110.369 455.796 98.8881 450.849 99.1562C445.903 99.4242 442.658 105.331 442.658 105.331L434.384 100.718Z" fill="#263238"/>
<path d="M435.29 98.352C436.566 95.4403 438.212 92.6764 440.172 90.1344C442.15 87.6109 444.563 85.337 447.484 83.7841C450.369 82.1942 453.817 81.5194 457.136 81.9538C460.409 82.3698 463.598 83.553 466.326 85.4664C469.044 87.3891 471.207 89.9865 472.834 92.7966C474.452 95.6251 475.663 98.6478 476.588 101.717C478.363 107.891 479.186 114.251 479.546 120.592C478.492 114.325 477.207 108.104 475.256 102.142C474.193 99.1932 473.001 96.2999 471.383 93.6655C469.793 91.0311 467.777 88.6462 465.29 86.9269C462.831 85.1614 459.91 84.0706 456.905 83.6362C453.928 83.1555 450.859 83.7101 448.113 85.0319C445.367 86.363 442.917 88.3781 440.837 90.7075C439.765 91.8537 438.803 93.1016 437.87 94.368C436.964 95.6621 436.104 96.9932 435.29 98.3612V98.352Z" fill="#263238"/>
<path d="M460.113 121.304C459.956 125.205 459.364 129.069 458.93 132.932C458.43 136.787 457.95 140.642 457.589 144.505C457.247 148.36 456.97 152.224 456.997 156.078C457.007 159.924 457.256 163.778 458.005 167.513C458.726 171.247 459.965 174.889 461.999 178.051C464.051 181.166 466.788 183.985 469.811 186.231C472.871 188.468 476.421 190.058 480.203 190.677C482.089 191.001 484.011 191.093 485.934 190.908C486.896 190.825 487.848 190.668 488.791 190.446C489.725 190.224 490.677 189.966 491.518 189.476C489.882 190.557 487.922 191.047 485.999 191.38C484.058 191.694 482.061 191.74 480.092 191.546C478.122 191.334 476.172 190.844 474.304 190.15C472.437 189.439 470.671 188.487 469.016 187.377C467.361 186.268 465.827 184.974 464.421 183.569L463.386 182.497L462.406 181.378C461.749 180.63 461.13 179.816 460.575 178.975C458.347 175.601 457.034 171.737 456.249 167.855C454.769 160.025 455.222 152.085 456.202 144.348C456.692 140.466 457.367 136.63 458.07 132.794C458.81 128.967 459.568 125.159 460.122 121.304H460.113Z" fill="#263238"/>
<path d="M433.21 100.718C433.155 98.888 434.477 96.5401 435.66 96.2166C436.844 95.8931 445.608 99.6552 446.366 101.901C447.115 104.148 443.223 106.135 443.223 106.135L433.219 100.718H433.21Z" fill="#455A64"/>
<path d="M439.978 181.434C434.773 192.766 396.008 246.047 376.769 247.498C356.634 249.023 308.328 216.116 303.706 213.38C291.012 205.865 326.402 171.229 332.522 177.376C342.747 187.655 367.201 207.038 373.182 205.726C385.746 202.971 411.928 180.99 430.492 169.556C441.697 162.651 445.747 168.899 439.978 181.434Z" fill="#AD6359"/>
<path d="M306.738 215.145C304.547 213.694 286.935 203.905 280.325 194.467C276.821 189.466 268.75 174.649 271.524 172.135C274.057 169.842 277.265 173.364 277.265 173.364C277.265 173.364 273.761 166.699 277.32 163.557C280.88 160.414 285.992 166.625 285.992 166.625C285.992 166.625 282.895 159.526 286.667 156.642C290.439 153.758 294.535 160.876 294.535 160.876C294.535 160.876 291.401 154.516 295.505 153.444C300.442 152.159 304.898 164.546 309.687 169.306C310.778 170.388 333.299 189.651 333.299 189.651L306.738 215.127V215.145Z" fill="#AD6359"/>
<path d="M294.812 160.876C298.112 169.972 301.126 173.383 308.652 179.224C308.8 179.335 308.661 179.585 308.494 179.474C300.599 174.427 296.199 170.693 294.359 161.005C294.266 160.534 294.655 160.432 294.812 160.867V160.876Z" fill="#263238"/>
<path d="M286.27 166.598C290.522 175.749 293.758 179.474 301.191 186.176C301.293 186.268 301.145 186.462 301.034 186.37C293.194 180.408 288.886 176.59 285.844 166.884C285.706 166.45 286.075 166.182 286.27 166.598Z" fill="#263238"/>
<path d="M277.644 173.678C282.396 182.238 285.77 186.481 293.823 192.055C294.017 192.184 293.841 192.48 293.638 192.36C284.874 187.47 280.621 182.21 277.404 173.845C277.182 173.272 277.348 173.133 277.644 173.669V173.678Z" fill="#263238"/>
<path d="M340.926 186.887C340.926 186.887 335.925 175.841 332.661 171.469C329.398 167.097 311.231 155.302 308.458 159.073C304.88 163.954 314.023 172.828 319.071 176.59C319.071 176.59 310.778 187.867 315.965 195.659C321.151 203.452 340.926 186.878 340.926 186.878V186.887Z" fill="#AD6359"/>
<path d="M307.912 160.737C307.857 167.54 314.8 172.051 319.422 176.072C319.774 176.377 319.653 176.766 319.367 176.987C316.205 181.942 313.191 189.864 315.586 195.586C315.659 195.752 315.428 195.872 315.336 195.715C311.934 189.919 314.263 181.905 318.072 176.692C313.265 172.643 306.498 167.818 307.847 160.728C307.847 160.691 307.912 160.691 307.912 160.728V160.737Z" fill="#263238"/>
<path d="M439.442 184.66C433.405 196.686 398.227 247.988 379.22 248.801C360.212 249.615 320.393 233.392 320.393 233.392L349.894 188.477C349.894 188.477 370.317 203.212 373.515 203.332C376.714 203.452 419.602 175.12 429.623 168.899C439.645 162.678 449.26 165.1 439.442 184.66Z" fill="#FFC727"/>
<path d="M347.325 233.725C347.149 232.329 347.26 230.97 347.426 229.621C347.63 228.28 347.898 226.94 348.443 225.646C348.619 227.042 348.508 228.401 348.342 229.75C348.138 231.09 347.87 232.431 347.325 233.725Z" fill="white"/>
<path d="M406.049 224.731C405.873 223.335 405.984 221.976 406.151 220.627C406.354 219.286 406.622 217.946 407.168 216.652C407.343 218.048 407.232 219.406 407.066 220.756C406.862 222.096 406.594 223.437 406.049 224.731Z" fill="white"/>
<path d="M409.303 190.566C407.907 190.742 406.548 190.631 405.199 190.465C403.858 190.261 402.518 189.993 401.223 189.448C402.619 189.272 403.978 189.383 405.328 189.55C406.669 189.753 408.009 190.021 409.303 190.566Z" fill="white"/>
<path d="M361.978 206.059C360.582 206.234 359.223 206.124 357.873 205.957C356.533 205.754 355.192 205.486 353.898 204.94C355.294 204.765 356.653 204.876 358.003 205.042C359.343 205.245 360.684 205.513 361.978 206.059Z" fill="white"/>
<path d="M368.884 247.794C368.828 247.868 368.773 247.942 368.708 248.006C368.634 247.997 368.551 247.988 368.468 247.969C368.606 247.914 368.745 247.849 368.884 247.794Z" fill="white"/>
<path d="M335.518 217.604C336.387 216.495 337.414 215.607 338.495 214.775C339.586 213.971 340.723 213.213 342.027 212.686C341.167 213.796 340.132 214.683 339.05 215.515C337.959 216.319 336.822 217.077 335.518 217.604Z" fill="white"/>
<path d="M384.721 207.399C385.59 206.29 386.625 205.402 387.697 204.57C388.788 203.766 389.926 203.008 391.229 202.481C390.369 203.591 389.334 204.478 388.252 205.31C387.161 206.114 386.024 206.872 384.721 207.399Z" fill="white"/>
<path d="M368.394 221.477C369.503 222.346 370.391 223.381 371.223 224.453C372.027 225.544 372.785 226.681 373.312 227.985C372.203 227.125 371.315 226.09 370.483 225.008C369.679 223.917 368.921 222.78 368.394 221.477Z" fill="white"/>
<path d="M415.109 200.411C416.218 201.28 417.106 202.315 417.938 203.387C418.742 204.478 419.5 205.615 420.027 206.918C418.918 206.059 418.03 205.023 417.198 203.942C416.394 202.851 415.636 201.714 415.109 200.411Z" fill="white"/>
<path d="M356.283 195.78C352.566 202.491 348.988 209.275 344.976 215.829C341.019 222.29 336.951 228.77 332.329 234.779C332.245 234.89 332.042 234.779 332.116 234.64C335.666 227.938 339.725 221.468 343.672 214.997C347.648 208.471 351.891 202.112 355.867 195.586C356.014 195.336 356.43 195.521 356.283 195.78Z" fill="#263238"/>
<path d="M439.451 184.66C433.414 196.686 398.228 247.988 379.22 248.801C374.607 248.995 368.764 248.191 362.569 246.851C377.343 231.053 418.659 186.499 437.787 165.877C443.593 165.525 446.413 170.776 439.451 184.66Z" fill="#263238"/>
<path d="M404.384 303.755H515.953C515.953 303.755 472.576 193.95 449.472 171.857C443.195 165.849 427.682 166.293 420.082 176.424C413.851 184.724 396.554 217.789 395.768 229.676C395.01 241.591 404.31 253.303 404.31 253.303L404.393 303.755H404.384Z" fill="#FFC727"/>
<path d="M418.64 262.611C418.464 261.215 418.575 259.857 418.742 258.507C418.945 257.167 419.213 255.826 419.759 254.532C419.934 255.928 419.823 257.287 419.657 258.636C419.454 259.977 419.186 261.317 418.64 262.611Z" fill="white"/>
<path d="M495.3 283.28C495.124 281.884 495.235 280.525 495.402 279.176C495.605 277.836 495.873 276.495 496.419 275.201C496.594 276.597 496.483 277.956 496.317 279.305C496.113 280.646 495.845 281.986 495.3 283.28Z" fill="white"/>
<path d="M447.17 301.342C446.994 299.946 447.105 298.587 447.272 297.238C447.475 295.897 447.743 294.557 448.288 293.263C448.464 294.659 448.353 296.018 448.187 297.367C447.983 298.707 447.715 300.048 447.17 301.342Z" fill="white"/>
<path d="M436.076 218.454C435.901 217.059 436.012 215.7 436.178 214.35C436.381 213.01 436.649 211.67 437.195 210.375C437.371 211.771 437.26 213.13 437.093 214.48C436.89 215.82 436.622 217.16 436.076 218.454Z" fill="white"/>
<path d="M465.725 251.824C465.549 250.428 465.66 249.069 465.827 247.72C466.03 246.379 466.298 245.039 466.843 243.745C467.019 245.141 466.908 246.499 466.742 247.849C466.538 249.189 466.27 250.53 465.725 251.824Z" fill="white"/>
<path d="M406.048 224.731C405.872 223.335 405.983 221.976 406.15 220.627C406.353 219.286 406.621 217.946 407.167 216.652C407.342 218.048 407.231 219.406 407.065 220.756C406.862 222.096 406.594 223.437 406.048 224.731Z" fill="white"/>
<path d="M445.284 257.555C443.888 257.731 442.529 257.62 441.179 257.453C439.839 257.25 438.498 256.982 437.204 256.437C438.6 256.261 439.959 256.363 441.309 256.538C442.649 256.742 443.99 257.01 445.284 257.555Z" fill="white"/>
<path d="M478.936 225.655C477.54 225.831 476.181 225.72 474.831 225.553C473.491 225.35 472.15 225.082 470.856 224.537C472.252 224.361 473.611 224.472 474.961 224.638C476.301 224.842 477.642 225.11 478.936 225.655Z" fill="white"/>
<path d="M418.889 295.065C417.493 295.241 416.134 295.13 414.784 294.964C413.444 294.76 412.103 294.492 410.809 293.947C412.205 293.771 413.564 293.882 414.914 294.049C416.254 294.252 417.595 294.52 418.889 295.065Z" fill="white"/>
<path d="M481.488 267.436C480.092 267.612 478.733 267.501 477.383 267.335C476.042 267.131 474.702 266.863 473.407 266.318C474.803 266.142 476.162 266.253 477.512 266.42C478.853 266.623 480.193 266.891 481.488 267.436Z" fill="white"/>
<path d="M428.671 282.596C429.54 281.487 430.566 280.599 431.648 279.767C432.739 278.963 433.876 278.205 435.179 277.678C434.32 278.787 433.284 279.675 432.203 280.507C431.112 281.311 429.975 282.069 428.671 282.596Z" fill="white"/>
<path d="M470.856 290.656C471.725 289.547 472.751 288.66 473.833 287.828C474.924 287.024 476.061 286.266 477.365 285.739C476.505 286.848 475.469 287.735 474.388 288.567C473.297 289.372 472.16 290.129 470.856 290.656Z" fill="white"/>
<path d="M482.024 251.195C482.893 250.086 483.919 249.199 485.001 248.367C486.092 247.563 487.229 246.805 488.532 246.278C487.673 247.387 486.637 248.274 485.556 249.106C484.465 249.911 483.328 250.669 482.024 251.195Z" fill="white"/>
<path d="M415.413 237.016C416.282 235.906 417.309 235.019 418.39 234.187C419.481 233.383 420.618 232.625 421.922 232.098C421.062 233.207 420.027 234.095 418.945 234.926C417.854 235.731 416.717 236.489 415.413 237.016Z" fill="white"/>
<path d="M458.55 209.858C459.42 208.749 460.446 207.861 461.527 207.029C462.618 206.225 463.755 205.467 465.059 204.94C464.199 206.049 463.164 206.937 462.082 207.769C460.991 208.573 459.854 209.331 458.55 209.858Z" fill="white"/>
<path d="M407.259 269.498C406.409 270.589 405.392 271.467 404.328 272.289V271.162C405.235 270.515 406.196 269.932 407.259 269.498Z" fill="white"/>
<path d="M436.575 192.462C437.444 191.352 438.479 190.465 439.552 189.633C440.643 188.829 441.78 188.071 443.083 187.544C442.224 188.653 441.188 189.541 440.107 190.372C439.016 191.177 437.879 191.935 436.575 192.462Z" fill="white"/>
<path d="M399.789 242.645C400.899 243.514 401.786 244.549 402.618 245.621C403.422 246.712 404.181 247.849 404.708 249.153C403.598 248.293 402.711 247.258 401.879 246.176C401.074 245.085 400.316 243.948 399.789 242.645Z" fill="white"/>
<path d="M415.108 200.411C416.217 201.28 417.105 202.315 417.937 203.387C418.741 204.478 419.499 205.615 420.026 206.918C418.917 206.059 418.029 205.023 417.197 203.942C416.393 202.851 415.635 201.714 415.108 200.411Z" fill="white"/>
<path d="M453.799 268.703C454.908 269.572 455.796 270.607 456.628 271.679C457.432 272.77 458.19 273.907 458.717 275.21C457.608 274.35 456.72 273.315 455.888 272.234C455.084 271.143 454.326 270.006 453.799 268.703Z" fill="white"/>
<path d="M493.968 295.519C495.078 296.387 495.965 297.423 496.797 298.495C497.602 299.586 498.36 300.723 498.887 302.026C497.777 301.166 496.89 300.131 496.058 299.05C495.253 297.959 494.495 296.822 493.968 295.519Z" fill="white"/>
<path d="M453.059 180.472C454.168 181.341 455.056 182.377 455.888 183.449C456.692 184.54 457.45 185.677 457.977 186.98C456.868 186.12 455.98 185.085 455.148 184.003C454.344 182.913 453.586 181.776 453.059 180.472Z" fill="white"/>
<path d="M445.857 232.523C446.966 233.392 447.854 234.427 448.686 235.5C449.49 236.59 450.248 237.727 450.775 239.031C449.666 238.171 448.778 237.136 447.946 236.054C447.142 234.964 446.384 233.827 445.857 232.523Z" fill="white"/>
<path d="M442.049 172.92C441.429 174.566 431.888 184.54 424.178 183.172C421.663 182.719 423.512 168.899 423.512 168.899L423.41 167.846L422.07 153.121L440.273 144.524L442.89 143.415C442.89 143.415 442.991 147.464 443.065 152.511C443.065 152.742 443.075 152.982 443.075 153.232C443.084 153.518 443.102 153.786 443.102 154.054C443.121 154.812 443.139 155.579 443.139 156.347C443.139 156.929 443.149 157.502 443.139 158.112C443.139 158.731 443.121 159.323 443.121 159.942C442.964 166.006 442.298 172.227 442.049 172.93V172.92Z" fill="#AD6359"/>
<path d="M443.075 152.511C437.5 163.363 427.802 166.829 423.42 167.846L422.079 153.121L440.283 144.524L442.899 143.415C442.899 143.415 443.001 147.464 443.075 152.511Z" fill="#263238"/>
<path d="M403.349 131.444C401.287 157.308 416.551 161.458 422.125 161.893C427.192 162.29 444.48 163.002 449.204 137.49C453.919 111.977 442.548 102.845 431.019 101.329C419.491 99.8034 405.41 105.581 403.358 131.444H403.349Z" fill="#AD6359"/>
<path d="M407.712 125.944C408.322 125.879 408.877 125.713 409.469 125.593C410.144 125.454 410.689 125.408 411.188 124.89C411.456 124.613 411.438 124.049 411.198 123.763C410.634 123.097 409.765 123.069 408.942 123.208C408.054 123.356 407.407 123.698 406.825 124.373C406.251 125.029 406.908 126.027 407.712 125.944Z" fill="#263238"/>
<path d="M424.927 126.314C424.317 126.24 423.771 126.064 423.179 125.926C422.514 125.769 421.959 125.713 421.469 125.195C421.21 124.918 421.229 124.354 421.478 124.068C422.061 123.411 422.93 123.402 423.743 123.55C424.631 123.716 425.269 124.077 425.842 124.761C426.406 125.427 425.731 126.416 424.927 126.314Z" fill="#263238"/>
<path d="M420.877 132.831C420.896 132.766 421.016 132.923 421.007 132.988C420.896 134.753 421.062 136.787 422.634 137.425C422.68 137.443 422.671 137.536 422.615 137.527C420.674 137.184 420.48 134.476 420.868 132.831H420.877Z" fill="#263238"/>
<path d="M422.514 131.038C425.361 130.917 425.398 136.621 422.754 136.732C420.156 136.843 420.119 131.139 422.514 131.038Z" fill="#263238"/>
<path d="M423.632 131.333C424.132 131.657 424.622 132.221 425.223 132.276C425.916 132.341 426.443 131.74 426.887 131.167C426.933 131.111 426.979 131.158 426.988 131.232C427.016 132.322 426.6 133.45 425.426 133.616C424.363 133.774 423.586 132.812 423.309 131.712C423.253 131.509 423.429 131.204 423.632 131.333Z" fill="#263238"/>
<path d="M411.068 132.442C411.05 132.378 410.93 132.526 410.939 132.6C411.022 134.365 410.819 136.399 409.228 137.009C409.182 137.027 409.182 137.12 409.247 137.111C411.198 136.805 411.438 134.106 411.077 132.442H411.068Z" fill="#263238"/>
<path d="M409.469 130.621C406.622 130.446 406.483 136.149 409.118 136.306C411.706 136.463 411.854 130.769 409.469 130.621Z" fill="#263238"/>
<path d="M408.267 130.963C407.805 131.25 407.352 131.795 406.806 131.814C406.178 131.842 405.734 131.213 405.355 130.612C405.318 130.547 405.272 130.594 405.262 130.668C405.207 131.758 405.54 132.905 406.575 133.136C407.528 133.348 408.249 132.433 408.535 131.352C408.591 131.148 408.443 130.843 408.258 130.954L408.267 130.963Z" fill="#263238"/>
<path d="M421.007 146.807C420.609 147.242 420.212 147.833 419.574 147.916C418.964 147.999 418.224 147.759 417.651 147.574C417.595 147.556 417.54 147.62 417.577 147.667C418.067 148.323 419.056 148.693 419.87 148.508C420.665 148.323 421.025 147.62 421.173 146.872C421.192 146.77 421.062 146.733 420.998 146.798L421.007 146.807Z" fill="#263238"/>
<path d="M413.657 140.383C413.657 140.383 413.278 143.017 413.269 144.265C413.269 144.385 413.574 144.441 413.99 144.468C414.009 144.468 414.018 144.487 414.036 144.468C416.237 144.82 418.446 144.08 419.796 142.287C419.879 142.167 419.722 142.037 419.611 142.111C417.965 143.304 416.153 143.609 414.203 143.627C414.12 143.285 415.007 139.135 414.804 139.116C414.12 139.052 412.779 139.514 411.975 139.745C412.603 134.226 414.11 128.865 414.665 123.365C414.683 123.171 414.397 123.106 414.341 123.282C412.363 128.8 411.494 135.123 410.699 140.808C410.597 141.51 413.158 140.595 413.657 140.383Z" fill="#263238"/>
<path d="M414.258 144.209C414.258 144.209 415.46 145.873 417.133 146.493C417.744 146.724 418.409 146.816 419.112 146.64C420.545 146.28 420.6 144.967 420.351 143.84C420.147 142.915 419.731 142.111 419.731 142.111C419.731 142.111 417.614 144.043 414.267 144.209H414.258Z" fill="#263238"/>
<path d="M417.124 146.493C417.734 146.724 418.4 146.816 419.102 146.64C420.535 146.28 420.591 144.967 420.341 143.84C418.807 143.978 417.272 145.004 417.124 146.493Z" fill="#EB9481"/>
<path d="M448.057 140.068C442.363 137.351 442.141 131.379 442.141 131.379C435.068 128.32 431.259 122.783 430.871 122.219C431.047 122.755 432.276 126.601 432.96 128.542C416.597 125.408 411.586 112.855 411.586 112.855C406.251 118.133 405.179 121.517 404.402 123.199C404.402 123.199 404.328 113.151 409.524 106.449C415.885 98.2411 437.241 96.1151 447.068 106.902C457.654 118.54 448.048 140.059 448.048 140.059L448.057 140.068Z" fill="#263238"/>
<path d="M420.526 125.769C423.124 127.248 426.027 128.255 428.911 128.893C428.939 128.893 428.939 128.865 428.911 128.856C424.307 127.525 420.174 125.094 416.92 121.535C415.543 120.028 414.369 118.374 413.407 116.58C412.409 114.704 411.429 112.467 411.262 110.332C411.253 110.165 410.994 110.193 411.013 110.35C411.188 112.615 411.382 114.695 412.279 116.811C413.139 118.817 414.369 120.685 415.894 122.247C417.253 123.642 418.825 124.807 420.517 125.778" fill="#263238"/>
<path d="M444.933 139.144C444.933 139.144 450.535 131.01 454.224 132.997C457.913 134.994 453.744 146.761 449.435 148.397C445.136 150.033 443.537 146.077 443.537 146.077L444.924 139.144H444.933Z" fill="#AD6359"/>
<path d="M452.948 136.343C453.022 136.343 453.032 136.436 452.976 136.454C449.962 137.702 448.391 140.521 447.29 143.433C448.178 142.305 449.398 141.686 450.915 142.749C450.998 142.805 450.915 142.925 450.831 142.915C449.593 142.657 448.696 142.878 447.864 143.877C447.272 144.579 446.874 145.476 446.458 146.289C446.32 146.557 445.83 146.419 445.932 146.105C445.932 146.086 445.95 146.058 445.959 146.031C445.858 142.176 448.816 136.759 452.948 136.343Z" fill="#263238"/>
<path d="M445.839 147.815C445.839 148.859 446.69 149.71 447.734 149.71C448.779 149.71 449.63 148.859 449.63 147.815C449.63 146.77 448.779 145.92 447.734 145.92C446.69 145.92 445.839 146.77 445.839 147.815Z" fill="white"/>
<path d="M415.1 178.198C415.1 178.198 409.802 193.229 419.371 194.292C428.939 195.355 453.929 176.877 453.929 176.877C453.929 176.877 446.986 165.646 435.91 166.847C426.721 167.846 415.09 178.198 415.09 178.198H415.1Z" fill="#AD6359"/>
<path d="M460.289 195.798C460.27 214.36 449.62 270.015 439.377 277.512C418.88 292.514 370.815 291.479 357.558 291.71C351.835 291.812 344.319 253.719 348.581 249.328C352.843 244.937 411.401 243.329 414.406 241.074C416.486 239.511 433.016 212.418 442.585 195.003C455.519 171.46 460.298 186.444 460.289 195.798Z" fill="#AD6359"/>
<path d="M358.778 247.295C358.778 247.295 341.481 245.381 330.1 244.66C323.758 244.263 312.812 244.54 308.014 246.38C300.84 249.125 272.587 265.199 276.34 272.132C279.733 278.409 288.368 271.467 288.368 271.467C288.368 271.467 278.226 278.168 283.505 283.354C288.83 288.595 299.194 278.455 299.194 278.455C299.194 278.455 287.934 284.824 294.091 289.825C299.444 294.169 312.646 283.788 312.646 283.788C312.646 283.788 300.091 289.177 305.129 294.16C310.704 299.669 332.458 286.598 332.458 286.598C346.612 291.313 355.746 292.228 366.572 291.544C368.56 291.414 358.769 247.285 358.769 247.285L358.778 247.295Z" fill="#AD6359"/>
<path d="M296.051 280.747C296.902 279.989 297.771 279.25 298.612 278.483C300.276 276.994 301.922 275.552 303.752 274.268C305.527 273.029 307.348 271.874 309.207 270.764C311.167 269.6 313.265 268.62 315.198 267.409C315.355 267.307 315.484 267.538 315.327 267.631C313.376 268.731 311.583 270.182 309.771 271.495C307.977 272.798 306.211 274.12 304.436 275.442C302.707 276.736 300.895 277.91 299.13 279.148C298.251 279.768 297.392 280.433 296.541 281.089C295.746 281.709 294.96 282.448 294.073 282.92C293.98 282.966 293.906 282.846 293.962 282.772C294.526 281.995 295.339 281.376 296.051 280.738V280.747Z" fill="#263238"/>
<path d="M286.288 272.909C287.462 271.384 293.925 266.115 295.653 264.867C299 262.454 302.578 260.328 306.332 258.627C306.461 258.572 306.581 258.757 306.461 258.849C303.123 261.28 299.74 263.674 296.375 266.059C294.729 267.224 287.398 272.761 286.556 273.242C286.353 273.362 286.168 273.066 286.288 272.9V272.909Z" fill="#263238"/>
<path d="M305.028 288.355C306.221 286.95 312.313 282.069 313.968 280.951C315.521 279.906 322.446 276.366 324.609 275.673C324.748 275.626 324.859 275.82 324.738 275.894C321.345 277.919 317.916 279.869 314.615 282.051C313.006 283.114 306.849 287.717 305.222 288.604C305.074 288.688 304.917 288.475 305.028 288.355Z" fill="#263238"/>
<path d="M370.446 294.511L354.637 244.281C354.637 244.281 412.169 240.602 414.036 239.641C415.904 238.679 436.409 202.454 444.517 188.376C452.625 174.288 465.189 180.093 460.502 211.873C455.787 243.847 450.619 268.703 443.445 276.088C434.745 285.055 402.942 294.298 370.446 294.511Z" fill="#FFC727"/>
<path d="M418.64 262.611C418.464 261.215 418.575 259.857 418.742 258.507C418.945 257.167 419.213 255.826 419.758 254.532C419.934 255.928 419.823 257.287 419.657 258.636C419.453 259.977 419.185 261.317 418.64 262.611Z" fill="white"/>
<path d="M386.856 291.359C386.68 289.963 386.791 288.604 386.958 287.255C387.161 285.914 387.429 284.574 387.975 283.28C388.15 284.676 388.039 286.035 387.873 287.384C387.669 288.725 387.401 290.065 386.856 291.359Z" fill="white"/>
<path d="M436.076 218.454C435.9 217.059 436.011 215.7 436.178 214.35C436.381 213.01 436.649 211.67 437.195 210.375C437.37 211.771 437.259 213.13 437.093 214.48C436.89 215.82 436.621 217.16 436.076 218.454Z" fill="white"/>
<path d="M445.285 257.555C443.889 257.73 442.53 257.62 441.18 257.453C439.839 257.25 438.499 256.982 437.204 256.436C438.6 256.261 439.959 256.362 441.309 256.538C442.65 256.741 443.99 257.009 445.285 257.555Z" fill="white"/>
<path d="M390.055 259.136C388.659 259.311 387.3 259.2 385.95 259.034C384.609 258.831 383.269 258.563 381.974 258.017C383.37 257.842 384.73 257.953 386.079 258.119C387.42 258.322 388.76 258.59 390.055 259.136Z" fill="white"/>
<path d="M428.671 282.596C429.54 281.487 430.566 280.599 431.648 279.767C432.739 278.963 433.876 278.205 435.179 277.678C434.319 278.787 433.284 279.675 432.202 280.507C431.111 281.311 429.974 282.069 428.671 282.596Z" fill="white"/>
<path d="M362.375 252.702C363.244 251.593 364.27 250.705 365.352 249.873C366.443 249.069 367.58 248.311 368.883 247.784C368.023 248.894 366.988 249.781 365.906 250.613C364.815 251.417 363.678 252.175 362.375 252.702Z" fill="white"/>
<path d="M421.922 232.098C421.062 233.207 420.027 234.095 418.945 234.926C418.104 235.546 417.235 236.137 416.283 236.618C416.569 236.174 416.884 235.684 417.207 235.158C417.207 235.148 417.207 235.148 417.207 235.148C417.586 234.816 417.984 234.492 418.381 234.187C419.472 233.383 420.609 232.625 421.913 232.098H421.922Z" fill="white"/>
<path d="M461.047 207.408C461.019 207.796 460.973 208.185 460.927 208.582C460.187 209.072 459.402 209.516 458.551 209.858C459.291 208.915 460.15 208.138 461.047 207.408Z" fill="white"/>
<path d="M400.751 274.406C401.62 273.297 402.655 272.409 403.728 271.578C404.819 270.773 405.956 270.015 407.259 269.489C406.4 270.598 405.364 271.485 404.283 272.317C403.192 273.121 402.054 273.879 400.751 274.406Z" fill="white"/>
<path d="M399.789 242.645C400.899 243.514 401.786 244.549 402.618 245.621C403.423 246.712 404.181 247.849 404.708 249.153C403.598 248.293 402.711 247.258 401.879 246.176C401.074 245.085 400.316 243.948 399.789 242.645Z" fill="white"/>
<path d="M457.969 186.98C456.859 186.12 455.981 185.085 455.149 184.013C454.474 183.107 453.846 182.173 453.356 181.138C453.531 181.138 453.698 181.147 453.864 181.166C454.613 181.868 455.26 182.645 455.879 183.449C456.693 184.549 457.442 185.677 457.969 186.98Z" fill="white"/>
<path d="M445.857 232.523C446.967 233.392 447.854 234.427 448.686 235.5C449.491 236.59 450.249 237.727 450.776 239.031C449.666 238.171 448.779 237.136 447.947 236.054C447.143 234.964 446.384 233.827 445.857 232.523Z" fill="white"/>
<path d="M432.036 209.618C430.159 212.428 428.431 215.321 426.692 218.214C426.646 218.297 426.6 218.371 426.545 218.454C426.628 218.233 426.72 218.02 426.803 217.798C427.367 216.365 427.867 214.896 428.477 213.472C428.514 213.389 428.384 213.315 428.347 213.398C427.728 214.794 427.035 216.153 426.434 217.558C426.036 218.51 425.676 219.471 425.333 220.442C424.048 222.586 422.763 224.731 421.497 226.894C419.796 229.806 418.104 232.717 416.384 235.62C415.968 236.332 415.552 237.043 415.127 237.746C414.757 238.356 414.341 238.901 413.638 239.123C412.908 239.364 412.039 239.354 411.281 239.437C410.44 239.53 409.598 239.632 408.757 239.733C404.93 240.195 401.13 240.833 397.302 241.332C397.21 241.342 397.21 241.48 397.302 241.48C400.816 241.221 404.347 241.083 407.86 240.796C409.589 240.658 411.336 240.537 413.056 240.316C413.712 240.232 414.341 240.094 414.868 239.669C415.367 239.262 415.7 238.698 416.024 238.143C419.509 232.117 422.994 226.09 426.471 220.054C428.44 216.633 430.437 213.232 432.249 209.728C432.323 209.581 432.119 209.47 432.027 209.608L432.036 209.618Z" fill="#263238"/>
<path d="M460.594 223.021C460.492 224.148 460.076 225.322 459.771 226.413C459.494 227.402 459.226 228.391 458.93 229.371C458.588 230.48 458.209 231.58 457.82 232.68C458.597 227.79 459.216 222.873 459.669 217.928C459.679 217.78 459.429 217.752 459.41 217.9C458.486 224.805 457.21 231.673 455.768 238.485C454.316 245.307 452.56 252.083 450.572 258.766C449.592 262.057 448.566 265.338 447.41 268.573C446.421 271.346 445.238 274.147 443.38 276.458C441.355 278.972 438.6 280.553 435.715 281.884C432.655 283.289 429.503 284.528 426.304 285.572C419.028 287.957 411.493 289.473 404.06 291.257C403.986 291.276 404.005 291.414 404.079 291.396C410.911 290.388 417.697 289.14 424.362 287.292C427.718 286.358 431.093 285.313 434.31 283.973C437.278 282.735 440.338 281.385 442.732 279.185C444.997 277.105 446.523 274.351 447.688 271.541C448.936 268.518 449.916 265.375 450.887 262.251C453.004 255.429 454.788 248.552 456.239 241.554C456.655 239.53 457.044 237.496 457.395 235.463C458.255 233.558 458.874 231.516 459.41 229.491C459.697 228.428 459.965 227.365 460.169 226.284C460.372 225.211 460.455 224.075 460.751 223.03C460.779 222.938 460.622 222.91 460.612 223.012L460.594 223.021Z" fill="#263238"/>
<path d="M380.449 290.453C377.842 283.234 375.087 276.079 372.794 268.749C370.538 261.521 368.329 254.19 366.85 246.758C366.822 246.62 367.044 246.555 367.09 246.685C369.799 253.765 371.999 261.077 374.273 268.315C376.566 275.608 378.563 282.984 380.865 290.268C380.948 290.545 380.551 290.74 380.449 290.453Z" fill="#263238"/>
<path d="M370.751 243.098C369.392 242.996 367.986 243.079 366.618 243.107C365.241 243.144 363.863 243.2 362.486 243.255C359.731 243.375 356.985 243.579 354.239 243.81C354.036 243.828 353.823 244.032 353.916 244.253C354.285 245.196 354.692 246.324 355.321 247.128C355.358 247.184 355.459 247.165 355.45 247.091C355.385 246.222 355.053 245.307 354.729 244.475C357.355 244.3 359.98 244.143 362.606 243.939C363.983 243.837 365.361 243.745 366.729 243.634C368.07 243.532 369.438 243.486 370.76 243.274C370.871 243.255 370.825 243.098 370.732 243.089L370.751 243.098Z" fill="#263238"/>
<path d="M308.661 232.338C312.091 234.039 327.761 234.686 332.338 240.306C335.379 244.041 335.074 247.821 336.849 258.978C338.384 268.666 330.359 266.355 328.048 261.4C324.424 253.608 321.308 245.067 321.308 245.067C317.638 244.817 313.284 245.187 313.284 245.187L308.661 232.338Z" fill="#F7A9A0"/>
<path d="M319.959 268.971C325.386 265.532 342.739 287.43 334.067 293.235C325.395 299.04 313.811 272.862 319.959 268.971Z" fill="#F7A9A0"/>
<path d="M311.166 273.63C316.593 270.191 333.946 292.089 325.274 297.894C316.603 303.699 305.018 277.521 311.166 273.63Z" fill="#F7A9A0"/>
<path d="M304.935 274.489C310.343 272.123 323.074 294.446 314.374 298.504C305.684 302.571 298.806 277.17 304.935 274.489Z" fill="#F7A9A0"/>
<path d="M298.565 273.879C304.251 273.204 309.78 297.515 300.562 298.837C291.345 300.168 292.122 274.646 298.565 273.879Z" fill="#F7A9A0"/>
<path d="M318.72 276.55C319.755 277.614 320.578 278.861 321.42 280.072C322.316 281.376 323.204 282.698 323.98 284.075C324.72 285.397 325.441 286.755 326.014 288.16C326.624 289.658 327.059 291.239 327.706 292.708C327.78 292.875 327.54 292.976 327.475 292.801C326.92 291.368 326.024 289.991 325.265 288.66C324.507 287.319 323.805 285.942 323.056 284.592C322.326 283.28 321.632 281.949 320.883 280.645C320.116 279.314 319.238 278.039 318.544 276.671C318.489 276.56 318.628 276.449 318.72 276.541V276.55Z" fill="#263238"/>
<path d="M309.678 276.421C310.242 278.067 312.1 284.352 312.729 285.979C313.367 287.615 314.051 289.242 314.763 290.841C315.484 292.468 316.122 294.197 316.991 295.759C317.074 295.907 316.852 296.027 316.769 295.888C315.891 294.317 314.883 292.847 314.088 291.229C313.302 289.63 312.6 288.003 311.962 286.34C311.324 284.666 309.641 278.187 309.419 276.449C309.401 276.292 309.641 276.283 309.687 276.412L309.678 276.421Z" fill="#263238"/>
<path d="M302.874 277.993C303.308 280.34 303.595 282.716 304.039 285.064C304.261 286.219 304.483 287.375 304.695 288.539C304.797 289.103 304.889 289.667 304.991 290.222C305.102 290.823 305.12 291.581 305.352 292.145C305.416 292.302 305.13 292.376 305.102 292.181C305.019 291.507 304.64 290.776 304.446 290.12C304.279 289.575 304.122 289.029 303.983 288.475C303.697 287.329 303.475 286.182 303.281 285.018C302.92 282.735 302.569 280.35 302.56 278.039C302.56 277.863 302.837 277.817 302.874 278.002V277.993Z" fill="#263238"/>
<path d="M387.466 122.543C389.74 119.076 391.025 115.176 391.025 111.044C391.025 96.4757 375.031 84.6716 355.311 84.6716C335.592 84.6716 319.607 96.485 319.607 111.044C319.607 125.602 335.592 137.416 355.311 137.416C364.871 137.416 373.543 134.643 379.949 130.123L392.254 133.247L387.475 122.543H387.466Z" fill="#FFC727"/>
<path d="M342.47 111.044C342.47 113.086 340.815 114.75 338.762 114.75C336.71 114.75 335.055 113.096 335.055 111.044C335.055 108.992 336.71 107.337 338.762 107.337C340.815 107.337 342.47 108.992 342.47 111.044Z" fill="#263238"/>
<path d="M355.32 114.75C357.368 114.75 359.027 113.091 359.027 111.044C359.027 108.996 357.368 107.337 355.32 107.337C353.273 107.337 351.613 108.996 351.613 111.044C351.613 113.091 353.273 114.75 355.32 114.75Z" fill="#263238"/>
<path d="M375.567 111.044C375.567 113.086 373.912 114.75 371.86 114.75C369.807 114.75 368.152 113.096 368.152 111.044C368.152 108.992 369.807 107.337 371.86 107.337C373.912 107.337 375.567 108.992 375.567 111.044Z" fill="#263238"/>
<path d="M258.562 43.4357C256.5 60.6751 245.415 63.8271 243.548 68.4212C242.549 70.9078 241.218 77.2396 241.218 77.2396L223.19 77.1934C223.19 77.1934 221.905 70.8615 220.907 68.3658C219.076 63.7624 207.982 60.5642 206.022 43.3156C204.719 31.9829 213.289 14.1057 232.361 14.1519C251.434 14.1982 259.902 32.1123 258.562 43.445V43.4357Z" fill="#FFC727"/>
<path d="M222.949 49.627L222.04 49.7943L227.32 78.4761L228.229 78.3087L222.949 49.627Z" fill="white"/>
<path d="M241.585 49.6558L236.174 78.3132L237.083 78.4847L242.493 49.8272L241.585 49.6558Z" fill="white"/>
<path d="M232.26 59.2607C230.845 59.2607 229.421 58.133 228.247 56.0902C228.192 55.9977 228.146 55.9053 228.09 55.8036C227.591 56.3582 227.064 56.6448 226.546 56.6448C223.847 56.6448 222.774 51.0709 222.728 50.8306L223.181 50.7474C223.19 50.8028 224.216 56.1734 226.546 56.1826C226.962 56.1826 227.424 55.8868 227.868 55.3599C226.722 53.0121 226.093 49.9432 226.907 48.5474C227.184 48.0667 227.619 47.8171 228.155 47.8171C228.811 47.8171 229.32 48.1129 229.643 48.6676C230.457 50.0818 229.856 52.9936 228.783 54.8423C228.663 55.0457 228.543 55.2398 228.414 55.4154C228.488 55.5633 228.571 55.7112 228.654 55.8591C229.283 56.9591 230.586 58.7893 232.26 58.7986C233.378 58.7986 234.497 57.9204 235.431 56.3213C235.505 56.1919 235.579 56.0532 235.653 55.9146C235.421 55.6557 235.209 55.3599 235.015 55.0272C233.905 53.086 233.674 50.2112 234.525 48.7507C234.876 48.1499 235.375 47.8356 235.985 47.8356C236.466 47.8356 236.854 48.076 237.122 48.5381C237.918 49.9247 237.474 53.2247 236.207 55.8221C236.669 56.2473 237.261 56.5708 238.01 56.5801C239.656 56.5801 241.126 52.6423 241.551 51.1264L241.995 51.2465C241.93 51.4869 240.349 57.033 238.01 57.033C237.261 57.033 236.577 56.765 235.985 56.2473C235.93 56.349 235.874 56.4414 235.819 56.5431C235.107 57.7725 233.905 59.2422 232.25 59.2422L232.26 59.2607ZM235.985 48.307C235.551 48.307 235.19 48.5381 234.931 48.9911C234.164 50.3037 234.395 53.0213 235.421 54.8053C235.551 55.0272 235.699 55.249 235.874 55.4709C237.002 53.049 237.428 49.9986 236.725 48.7785C236.54 48.4642 236.3 48.307 235.985 48.307ZM228.146 48.2886C227.766 48.2886 227.489 48.4549 227.295 48.7877C226.657 49.8877 227.073 52.5961 228.164 54.944C228.229 54.8423 228.303 54.7314 228.367 54.6204C229.347 52.9289 229.948 50.165 229.227 48.9079C228.987 48.4919 228.636 48.2886 228.146 48.2886Z" fill="white"/>
<path d="M243.314 76.493L221.08 76.4387L221.069 80.7832L243.303 80.8375L243.314 76.493Z" fill="#455A64"/>
<path d="M243.302 81.5402L221.067 81.4858L221.057 85.8303L243.291 85.8846L243.302 81.5402Z" fill="#455A64"/>
<path d="M243.314 86.5446L221.08 86.4941L221.07 90.8386L243.304 90.8891L243.314 86.5446Z" fill="#455A64"/>
<path d="M233.184 0C233.526 1.20167 233.591 2.40334 233.591 3.59577C233.563 4.79744 233.462 5.98986 233.073 7.18229C232.722 5.98062 232.667 4.77895 232.667 3.58652C232.704 2.38485 232.805 1.19243 233.184 0V0Z" fill="#263238"/>
<path d="M213.021 4.92688C213.917 5.79578 214.574 6.80333 215.175 7.83862C215.748 8.89239 216.256 9.9739 216.515 11.2033C215.609 10.3344 214.962 9.32684 214.361 8.29156C213.788 7.23778 213.28 6.15628 213.021 4.92688Z" fill="#263238"/>
<path d="M198.025 19.2637C199.236 19.5687 200.309 20.1141 201.344 20.7149C202.361 21.3435 203.35 22.0275 204.192 22.9519C202.971 22.6561 201.908 22.1107 200.873 21.5006C199.856 20.8721 198.867 20.188 198.025 19.2637Z" fill="#263238"/>
<path d="M192.219 39.1837C193.421 38.8417 194.623 38.777 195.816 38.777C197.008 38.8047 198.21 38.9064 199.403 39.2946C198.201 39.6459 196.999 39.7013 195.806 39.7013C194.614 39.6644 193.412 39.5627 192.219 39.1837Z" fill="#263238"/>
<path d="M197.147 59.3347C198.016 58.438 199.023 57.7817 200.059 57.1809C201.113 56.6078 202.194 56.0994 203.424 55.8406C202.555 56.7465 201.547 57.3935 200.512 57.9943C199.458 58.5674 198.376 59.0758 197.147 59.3347Z" fill="#263238"/>
<path d="M266.559 60.8692C265.348 60.5642 264.275 60.0188 263.24 59.418C262.223 58.7894 261.234 58.1054 260.392 57.181C261.613 57.4768 262.676 58.0222 263.711 58.6323C264.728 59.2608 265.717 59.9449 266.559 60.8692Z" fill="#263238"/>
<path d="M272.374 40.9585C271.172 41.3005 269.97 41.3652 268.778 41.3652C267.576 41.3375 266.383 41.2358 265.191 40.8476C266.393 40.4963 267.594 40.4316 268.787 40.4409C269.98 40.4779 271.182 40.5795 272.374 40.9585Z" fill="#263238"/>
<path d="M267.446 20.7981C266.577 21.6947 265.57 22.351 264.534 22.9519C263.48 23.525 262.398 24.0334 261.169 24.2922C262.038 23.3863 263.046 22.7393 264.081 22.1384C265.135 21.5653 266.217 21.0569 267.446 20.7981Z" fill="#263238"/>
<path d="M253.098 5.81433C252.793 7.02524 252.247 8.0975 251.646 9.13279C251.018 10.1496 250.333 11.1387 249.409 11.9798C249.705 10.7597 250.25 9.69665 250.86 8.66137C251.489 7.64457 252.173 6.6555 253.098 5.81433Z" fill="#263238"/>
</g>
<defs>
<clipPath id="clip0_5_1571">
<rect width="609.618" height="332.327" fill="white" transform="translate(0.190918)"/>
</clipPath>
</defs>
</svg>
