<?xml version="1.0" encoding="UTF-8"?>
<svg id="Layer_2" data-name="Layer 2" xmlns="http://www.w3.org/2000/svg" viewBox="0 0 198.66 71.58">
  <defs>
    <style>
      .cls-1 {
        fill: #0074bc;
      }

      .cls-1, .cls-2, .cls-3 {
        stroke-width: 0px;
      }

      .cls-2 {
        fill: none;
      }

      .cls-3 {
        fill: #f7941d;
      }
    </style>
  </defs>
  <g id="_圖層_1" data-name="圖層 1">
    <g>
      <path class="cls-2" d="M186.8,17.22h0c-.09-.07-.19-.13-.29-.18-.02-.01-.05-.03-.07-.04-.09-.04-.18-.08-.28-.11-.06-.02-.12-.03-.18-.05-.07-.02-.15-.04-.23-.05-.1-.02-.21-.02-.31-.03-.11,0-.21.01-.31.03-.08.01-.15.03-.23.05-.06.01-.12.03-.18.05-.1.03-.19.07-.28.11-.02.01-.05.02-.07.04-.1.05-.2.11-.29.18h0c-.09.07-.17.13-.25.21-.44.45-.66,1.06-.66,1.82v4.17c0,.76.22,1.36.66,1.82.41.42.95.64,1.6.67.66-.03,1.19-.25,1.6-.67.44-.45.66-1.06.66-1.82v-4.17c0-.76-.22-1.36-.66-1.82-.08-.08-.16-.14-.25-.21Z"/>
      <rect class="cls-3" x="23.71" y="64.47" width="80" height="1.19"/>
      <path class="cls-1" d="M35.54,20.61h-6.2c-3.42,0-7.36,2.99-8.76,6.65l-4.01,10.54h12.43l6.53-17.15.03-.04h-.01v-.03s0,.03,0,.03Z"/>
      <path class="cls-1" d="M15.65,40.17l-9.7,25.41-.02.04h0v.03s.01-.03.01-.03h6.2c3.42,0,7.36-2.99,8.76-6.64l7.18-18.81h-12.43Z"/>
      <path class="cls-1" d="M67.86,30.34c.91-3.39.75-9.31-12.86-9.31-11.61,0-17.67,6.26-19.65,11.04h10.81c2.27-5.52,12.1-5.16,10.85-1.43-1.1,3.27-5.45,2.77-8.65,3.01h0s-.93,0-.93,0l-1.53,4.15h7.09c5.71,0,12.43-.63,14.87-7.46Z"/>
      <path class="cls-1" d="M33.28,52.03c3.22,1.99,7.79,2.75,16.06,1.71,2.32-.29,5.75-1.31,8.99-3.32,2.62-1.63,6.03-5.62,5.61-10.25h-13.48c1.31.89,1.93,1.81,1.42,3.33-.64,1.92-3.23,3.98-7.3,3.13-4.5-.95-3.12-4.44-2.22-6.46h-11.29c-1.22,3.23-2.65,8.83,2.21,11.85Z"/>
      <path class="cls-1" d="M47.41,18.24c12.16,0,23.43-2.14,32.59-11.75l-.1-.1c-2.15,1.04-13.54,5.9-35.46,2.96-8.88-1.19-11.52-2.96-20.74-2.96S5.46,8.75,0,18.13l.12.12c1.45-.68,7.26-3.09,17.66-3.09,12.29,0,17.34,3.09,29.63,3.09Z"/>
      <path class="cls-3" d="M128.4,37.8l19.75-22.52h-8c-2.28,0-5.44,1.35-7.01,3l-11.03,11.86-5.43-7.75h-10.09l10.19,15.41h11.62Z"/>
      <path class="cls-3" d="M121.8,45.33l5.61,8.47h11.27l-9.56-13.63h-16.33l-12.67,13.63h8.77c2.93,0,6.95-1.78,8.92-3.95l3.99-4.52Z"/>
      <path class="cls-3" d="M67.94,36.27c-.09.32-.39,1.22-.46,1.53h12.16c.7-2.06,1.12-3.04,1.98-4.52,1.83-3.46,5.4-5.41,9.44-5.55,4-.14,4.49,1.92,3.58,3.76-.39.8-1.16,2.16-9.1,2.16h0c-.38,0-.6,0-1.01,0l-1.33,4.15h10.63c6.33,0,12.12-1.18,12.69-6.09,1.17-8.35-7.39-10.43-14.1-10.63-4.39-.13-18.3.79-24.49,15.2Z"/>
      <path class="cls-3" d="M83.17,54.09c11.23-.61,17.94-6.72,21.39-13.92h-11.23c-1.12,2.18-4.58,6.61-9.34,6.61s-5.56-2.9-4.93-6.61h-11.96c-1.72,11.85,6.95,13.92,16.08,13.92Z"/>
      <polygon class="cls-3" points="121.39 59.64 110.76 59.64 109.91 61.85 113.9 61.85 110.19 71.58 113.01 71.58 116.72 61.85 120.54 61.85 121.39 59.64"/>
      <polygon class="cls-3" points="130.79 59.64 129.03 64.22 123.88 64.22 125.64 59.64 122.82 59.64 118.25 71.58 121.05 71.58 123.03 66.43 128.18 66.43 126.21 71.58 129.03 71.58 133.61 59.64 130.79 59.64"/>
      <polygon class="cls-3" points="131.83 71.58 134.63 71.58 139.21 59.64 136.4 59.64 131.83 71.58"/>
      <polygon class="cls-3" points="151.22 24.17 151.01 24.17 148.75 36.62 136.3 38.88 136.3 39.09 148.75 41.36 151.01 53.8 151.22 53.8 153.49 41.36 165.93 39.09 165.93 38.88 153.49 36.62 151.22 24.17"/>
      <path class="cls-3" d="M175.17,0h-4.17c-1.73,0-3.29,1.01-4.01,2.58l-8.13,17.75v5.24h10.64v-5.49h-3.39L175.17,0Z"/>
      <polygon class="cls-3" points="176.76 12.43 171.62 12.43 171.36 12.43 171.06 12.43 171.06 17.09 171.06 30.22 171.36 30.22 171.62 30.22 176.76 30.22 177.06 30.22 177.32 30.22 177.32 12.43 177.06 12.43 176.76 12.43"/>
      <path class="cls-3" d="M190.98,14.54c-.49-.67-1.11-1.21-1.86-1.62-.99-.55-2.15-.83-3.48-.83-.03,0-.06,0-.09,0-.03,0-.06,0-.09,0,0,0-.01,0-.02,0s-.01,0-.02,0c-.03,0-.06,0-.09,0-.03,0-.06,0-.09,0-1.33,0-2.49.28-3.48.83-.74.41-1.36.96-1.86,1.62-.16.22-.32.46-.45.71-.55,1-.82,2.18-.82,3.51v5.13c0,1.34.27,2.51.82,3.51.14.25.29.49.45.71.49.67,1.11,1.21,1.86,1.62.74.41,1.58.67,2.52.78.31.03.63.05.96.05.03,0,.06,0,.09,0,.03,0,.06,0,.09,0,0,0,.01,0,.02,0s.01,0,.02,0c.03,0,.06,0,.09,0,.03,0,.06,0,.09,0,.33,0,.65-.02.96-.05.93-.1,1.77-.36,2.52-.78.74-.41,1.36-.96,1.86-1.62.16-.22.32-.46.45-.71.55-1,.82-2.17.82-3.51v-5.13c0-1.34-.27-2.51-.82-3.51-.14-.25-.29-.49-.45-.71ZM187.71,20.5v2.91c0,.76-.22,1.36-.66,1.82-.41.42-.95.64-1.6.67-.66-.03-1.19-.25-1.6-.67-.44-.45-.66-1.06-.66-1.82v-4.17c0-.76.22-1.36.66-1.82.08-.08.16-.14.25-.21h0c.09-.07.19-.13.29-.18.02-.01.05-.03.07-.04.09-.04.18-.08.28-.11.06-.02.12-.03.18-.05.07-.02.15-.04.23-.05.1-.02.21-.02.31-.03.11,0,.21.01.31.03.08.01.15.03.23.05.06.01.12.03.18.05.1.03.19.07.28.11.02.01.05.02.07.04.1.05.2.11.29.18h0c.09.07.17.13.25.21.44.45.66,1.06.66,1.82v1.26Z"/>
      <path class="cls-3" d="M191.69,5.43l-1.75.4v1.22h-.75v1.32h.75v2.3c0,.81.16,1.35.49,1.69.29.3.76.5,1.34.5.5,0,.92-.07,1.15-.15v-1.36c-.13.03-.31.05-.54.05-.53,0-.7-.31-.7-1v-2.03h1.27v-1.32h-1.27v-1.62Z"/>
      <path class="cls-3" d="M196.67,6.93c-.33,0-.66.08-.92.22-.28.15-.51.34-.69.58h-.02v-3.24h-1.79v8.25h1.79v-3.37c0-.13.01-.28.06-.38.12-.32.41-.61.87-.61.65,0,.9.5.9,1.25v3.12h1.79v-3.32c0-1.71-.85-2.5-1.99-2.5Z"/>
    </g>
  </g>
</svg>