<?xml version="1.0" encoding="UTF-8"?>
<svg id="Layer_2" data-name="Layer 2" xmlns="http://www.w3.org/2000/svg" viewBox="0 0 364.52 66.28">
  <defs>
    <style>
      .cls-1 {
        fill: #0074bc;
      }

      .cls-1, .cls-2, .cls-3, .cls-4 {
        stroke-width: 0px;
      }

      .cls-2 {
        fill: none;
      }

      .cls-3 {
        fill: #f7941d;
      }

      .cls-4 {
        fill: #6d6e71;
      }
    </style>
  </defs>
  <g id="_圖層_1" data-name="圖層 1">
    <g>
      <g>
        <path class="cls-4" d="M234.22,13.56c2.32,2.17,5.31,5.26,6.62,7.38l-2.54,1.84c-.33-.55-.78-1.21-1.31-1.91-13.37.66-15.16.71-16.5,1.16-.15-.6-.63-2.09-.98-2.87.65-.18,1.26-.65,2.09-1.46.88-.78,3.63-3.83,5.34-6.85l3.02,1.28c-1.59,2.34-3.58,4.58-5.49,6.42l10.33-.33c-.98-1.11-1.99-2.17-2.92-3.1l2.34-1.56ZM221.33,23.69h16.97v11.03h-3.22v-1.26h-10.68v1.29h-3.07v-11.06ZM224.4,26.56v4.03h10.68v-4.03h-10.68Z"/>
        <path class="cls-4" d="M242.48,32.6c.45-1.49.86-3.85,1.03-5.57l1.43.5c-.2,1.76-.5,4.2-.93,5.69l-1.54-.63ZM252.66,23.66s-.03.71-.03,1.03c-.18,5.92-.35,8.19-.91,8.97-.43.58-.86.81-1.51.88-.55.08-1.49.1-2.44.08-.05-.73-.28-1.69-.63-2.34.83.1,1.59.1,1.94.1.3,0,.5-.05.68-.3.15-.23.28-.83.4-2.09l-.78.3c-.15-.88-.58-2.24-1.03-3.22l1.08-.4c.3.6.58,1.36.8,2.07.05-.73.08-1.59.13-2.62h-6.77v-13.93h8.71v2.44h-2.52v1.44h2.02v2.27h-2.02v1.54h2.02v2.27h-2.02v1.54h2.87ZM246.51,27.39c.2,1.46.3,3.37.25,4.61l-1.28.18c.08-1.29,0-3.17-.18-4.66l1.21-.12ZM245.86,14.62v1.44h1.76v-1.44h-1.76ZM247.62,18.32h-1.76v1.54h1.76v-1.54ZM245.86,23.66h1.76v-1.54h-1.76v1.54ZM247.49,31.47c-.05-1.11-.33-2.8-.65-4.08l1.16-.25c.38,1.29.68,2.97.76,4.03l-1.26.3ZM264.47,23.99v1.79h1.13v2.29h-4.84v1.26h5.36v2.24h-5.36v3.22h-2.54v-3.22h-5.16v-2.24h5.16v-1.26h-4.68v-2.29h1.06v-1.79h-1.94v-2.34h1.94v-1.79h-1.31v-2.29h12.47v2.29h-1.28v1.79h1.66v2.34h-1.66ZM255.68,15.68h-2.82v-2.27h2.82v-1.99h2.37v1.99h2.9v-1.99h2.42v1.99h2.57v2.27h-2.57v1.41h-2.42v-1.41h-2.9v1.41h-2.37v-1.41ZM256.79,21.65h1.44v-1.79h-1.44v1.79ZM258.22,25.78v-1.79h-1.44v1.79h1.44ZM262.25,19.86h-1.49v1.79h1.49v-1.79ZM262.25,23.99h-1.49v1.79h1.49v-1.79Z"/>
        <path class="cls-4" d="M289.65,12.3v22.54h-2.97v-1.06h-15.66v1.06h-2.85V12.3h21.48ZM286.68,31.12V15h-3.12c.81.4,1.66.98,2.12,1.46l-1.01,1.06h1.21v2.12h-4.51c.13,1.41.28,2.72.48,3.85.5-.98.88-2.02,1.18-3.15l2.29.46c-.6,2.19-1.51,4.11-2.64,5.77.33.76.71,1.23,1.16,1.33.28.1.48-.88.58-2.34.45.45,1.36,1.13,1.86,1.41-.4,3.1-1.71,4.05-3.37,3.3-.76-.25-1.39-.83-1.89-1.66-.81.8-1.66,1.54-2.62,2.14-.33-.45-1.13-1.41-1.64-1.81.28-.15.55-.33.81-.5-2.01.3-3.98.58-5.64.85l-.28-2.19c1.84-.2,4.46-.5,7.08-.86l.05,1.26c.45-.38.86-.8,1.26-1.26-.53-1.81-.86-4.11-1.08-6.6h-7v-2.12h6.82c-.05-.71-.08-1.41-.13-2.14h2.47c.02.73.05,1.43.1,2.14h2.72c-.53-.45-1.28-.98-1.94-1.33l1.18-1.18h-12.16v16.12h15.66ZM278.19,25.5h-5.62v-4.79h5.62v4.79ZM276.18,22.3h-1.69v1.61h1.69v-1.61Z"/>
        <path class="cls-4" d="M315.03,14.14c-.68,1.99-1.74,4.13-2.87,5.62.88,1.11,1.94,1.99,3.25,2.59-.55.5-1.28,1.51-1.64,2.17-.98-.55-1.86-1.23-2.64-2.04v.88h-7.68v-1.18c-.83.91-1.74,1.66-2.67,2.27-.3-.5-.81-1.21-1.26-1.66.2.83.28,1.61.28,2.27,0,1.64-.3,2.74-1.08,3.32-.35.3-.81.48-1.36.55-.43.08-.98.08-1.51.08-.03-.73-.25-1.84-.65-2.59.43.05.76.05,1.01.02.23,0,.45-.05.63-.2.28-.2.4-.78.4-1.51,0-1.18-.25-2.82-1.56-4.58.45-1.51.93-3.6,1.28-5.24h-1.81v19.82h-2.57V12.23h5.26l.4-.1,1.91,1.08c-.38,1.28-.81,2.75-1.23,4.13,1.56-1.54,2.74-3.73,3.4-6.04l2.17.5c-.13.43-.3.86-.45,1.28h1.89l.38-.1.68.28c-.08-.4-.15-.8-.23-1.21l2.22-.33c.1.53.2,1.06.35,1.59h3.65l.45-.13,1.61.96ZM303.25,14.9c-.86,1.71-1.89,3.25-3.02,4.36-.33-.33-.98-.91-1.49-1.28-.2.66-.4,1.28-.6,1.86.68.96,1.08,1.86,1.33,2.75.93-.55,1.81-1.31,2.62-2.19-.43-.35-.93-.76-1.36-1.06l1.08-1.13c.38.25.86.58,1.28.91.25-.38.5-.73.73-1.13-.45-.3-.93-.63-1.36-.88l.93-1.26c.38.18.78.4,1.18.63.18-.48.38-1.01.55-1.56h-1.89ZM304.26,29.13c-.76,1.56-1.91,3.4-2.8,4.56-.53-.4-1.61-1.06-2.22-1.41.91-1.06,1.86-2.59,2.49-3.93l2.52.78ZM308.64,27.49v4.48c0,1.23-.18,1.91-1.03,2.34-.81.43-1.86.43-3.25.43-.13-.78-.5-1.81-.88-2.55.88.05,1.76.05,2.04.03.3,0,.38-.05.38-.33v-4.41h-4.76v-2.42h12.42v2.42h-4.91ZM309.92,20.99c-1.11-1.66-1.94-3.7-2.54-6.02-.65,2.34-1.66,4.38-2.9,6.02h5.44ZM309.87,15.3c.25.83.58,1.61.96,2.34.43-.71.83-1.54,1.13-2.34h-2.09ZM312.09,28.17c.93,1.23,2.27,2.97,2.92,4.03l-2.34,1.39c-.55-1.08-1.86-2.9-2.77-4.23l2.19-1.18Z"/>
        <path class="cls-4" d="M326.14,25c-.91.25-1.79.55-2.72.83v8.97h-2.75v-8.13c-1.36.4-2.62.8-3.78,1.11l-.73-2.85c1.26-.28,2.8-.68,4.51-1.16v-4.81h-1.69c-.28,1.23-.58,2.32-.93,3.22-.45-.38-1.56-1.06-2.12-1.38.78-1.99,1.21-5.14,1.43-8.11l2.49.43c-.1,1.01-.23,1.99-.38,3h1.18v-4.84h2.75v4.84h2.09v2.85h-2.09v4.06l2.32-.66.4,2.64ZM339.69,15.15s-.02,1.01-.05,1.36c-.48,11.23-.93,15.34-1.89,16.6-.58.85-1.13,1.13-1.96,1.31-.71.12-1.76.12-2.85.07-.08-.86-.38-2.09-.83-2.92.93.1,1.76.1,2.24.1.38,0,.63-.1.93-.48.63-.81,1.08-4.23,1.49-13.27h-.13c-1.23,6.35-3.83,12.89-7.88,16.24-.58-.58-1.61-1.31-2.44-1.74,4.03-2.9,6.55-8.61,7.81-14.51h-1.18c-1.11,4.11-3.22,8.61-5.77,11.03-.55-.58-1.51-1.26-2.29-1.69,2.49-1.97,4.46-5.69,5.57-9.34h-1.28c-.73,1.74-1.61,3.3-2.59,4.51-.48-.48-1.66-1.31-2.27-1.69,1.99-2.19,3.37-5.79,4.13-9.49l2.72.5c-.25,1.16-.58,2.29-.93,3.4h9.47Z"/>
        <path class="cls-4" d="M345.5,23.38c-.98-.86-3.05-2.04-4.66-2.72l1.56-2.27c1.59.58,3.73,1.66,4.76,2.49l-1.66,2.49ZM348.25,26.53c-1.33,2.62-2.92,5.49-4.43,7.93l-2.54-2.02c1.36-1.89,3.27-5.01,4.78-7.93l2.19,2.02ZM346.36,16.69c-.93-.93-2.92-2.19-4.48-2.97l1.66-2.19c1.54.68,3.58,1.81,4.58,2.75l-1.76,2.42ZM349.96,23.61h2.69v2.39c0,2.72-.43,6.19-3.83,8.61-.4-.6-1.41-1.51-2.09-1.94,2.9-1.99,3.22-4.63,3.22-6.78v-2.29ZM361.82,23.46c-.25-.45-.6-1.01-1.03-1.61-9.47.68-10.78.78-11.74,1.16-.1-.73-.45-2.17-.68-2.8.55-.1,1.46-.3,1.99-.81.38-.35,1.26-1.41,2.09-2.47h-4.28v-2.67h6.55c-.25-.8-.58-1.69-.91-2.42l2.77-.66c.48.96.98,2.14,1.26,3.07h5.94v2.67h-3.45c1.41,1.56,3.07,3.63,3.88,4.99l-2.39,1.54ZM359.05,19.48c-.43-.53-.86-1.06-1.26-1.51l1.71-1.03h-3.73c-.71.96-1.51,1.97-2.24,2.85l5.52-.3ZM354.19,23.59h2.62v10.07h-2.62v-10.07ZM361.9,31.95c.13,0,.25-.02.33-.08.08-.1.13-.28.18-.65.05-.4.08-1.28.1-2.42.45.43,1.34.88,2.02,1.11-.05,1.11-.15,2.44-.33,2.95-.18.5-.43.88-.81,1.11-.35.23-.93.35-1.39.35h-1.31c-.61,0-1.26-.2-1.66-.63-.45-.43-.63-.96-.63-2.64v-7.43h2.77v7.5c0,.38,0,.63.08.71.05.07.15.13.25.13h.4Z"/>
      </g>
      <g>
        <path class="cls-4" d="M223.91,46.99h-4.55v-2.69h12.37v2.69h-4.59v13.48h-3.23v-13.48Z"/>
        <path class="cls-4" d="M230.01,58.68c0-1.18.85-2.1,1.99-2.1s2.01.92,2.01,2.1-.85,2.1-2.01,2.1-1.99-.92-1.99-2.1Z"/>
        <path class="cls-4" d="M236.45,44.3h3.23v6.36h6.12v-6.36h3.21v16.17h-3.21v-6.99h-6.12v6.99h-3.23v-16.17Z"/>
        <path class="cls-4" d="M251.46,58.68c0-1.18.85-2.1,1.99-2.1s2.01.92,2.01,2.1-.85,2.1-2.01,2.1-1.99-.92-1.99-2.1Z"/>
        <path class="cls-4" d="M257.9,44.3h3.23v16.17h-3.23v-16.17Z"/>
        <path class="cls-4" d="M263.58,58.68c0-1.18.85-2.1,1.99-2.1s2.01.92,2.01,2.1-.85,2.1-2.01,2.1-1.99-.92-1.99-2.1Z"/>
        <path class="cls-4" d="M273.89,44.3h3.24v13.46h6.56v2.71h-9.79v-16.17Z"/>
        <path class="cls-4" d="M284.05,54.37c0-4.09,2.82-6.45,5.88-6.45s5.88,2.36,5.88,6.45-2.82,6.4-5.88,6.4-5.88-2.36-5.88-6.4ZM292.53,54.37c0-2.32-.94-3.82-2.6-3.82s-2.6,1.51-2.6,3.82.94,3.78,2.6,3.78,2.6-1.49,2.6-3.78Z"/>
        <path class="cls-4" d="M296.59,62.64c0-1.03.63-1.9,1.75-2.54v-.11c-.63-.42-1.11-1.05-1.11-2.05,0-.92.63-1.77,1.36-2.29v-.09c-.83-.61-1.62-1.77-1.62-3.19,0-2.88,2.34-4.44,4.94-4.44.68,0,1.33.13,1.84.31h4.41v2.36h-2.1c.33.41.57,1.09.57,1.86,0,2.75-2.1,4.15-4.72,4.15-.48,0-1.05-.11-1.57-.28-.35.28-.52.57-.52,1.05,0,.66.48,1.01,1.92,1.01h2.08c2.95,0,4.55.92,4.55,3.06,0,2.47-2.56,4.35-6.64,4.35-2.89,0-5.11-.98-5.11-3.15ZM305.29,61.98c0-.88-.72-1.09-2.03-1.09h-1.49c-.74,0-1.27-.07-1.7-.18-.55.44-.81.92-.81,1.42,0,1.03,1.14,1.62,2.93,1.62s3.1-.81,3.1-1.77ZM303.8,52.36c0-1.44-.81-2.25-1.9-2.25s-1.92.81-1.92,2.25.85,2.25,1.92,2.25,1.9-.81,1.9-2.25Z"/>
        <path class="cls-4" d="M309.04,44.52c0-1.05.81-1.75,1.92-1.75s1.9.7,1.9,1.75-.81,1.75-1.9,1.75-1.92-.74-1.92-1.75ZM309.35,48.23h3.19v12.24h-3.19v-12.24Z"/>
        <path class="cls-4" d="M313.74,59.05l1.46-2.01c1.09.85,2.14,1.33,3.28,1.33,1.22,0,1.77-.53,1.77-1.29,0-.92-1.27-1.33-2.56-1.84-1.55-.59-3.34-1.53-3.34-3.56,0-2.21,1.79-3.76,4.55-3.76,1.79,0,3.15.74,4.17,1.51l-1.44,1.94c-.87-.61-1.73-1.05-2.64-1.05-1.09,0-1.62.48-1.62,1.18,0,.9,1.2,1.23,2.49,1.7,1.62.61,3.41,1.42,3.41,3.69,0,2.14-1.68,3.87-4.87,3.87-1.64,0-3.45-.72-4.66-1.73Z"/>
        <path class="cls-4" d="M324.57,56.19v-5.42h-1.73v-2.38l1.88-.15.37-3.28h2.69v3.28h3.02v2.53h-3.02v5.42c0,1.4.57,2.05,1.66,2.05.39,0,.87-.13,1.2-.26l.52,2.34c-.66.22-1.51.46-2.58.46-2.91,0-4.02-1.84-4.02-4.59Z"/>
        <path class="cls-4" d="M331.89,44.52c0-1.05.81-1.75,1.92-1.75s1.9.7,1.9,1.75-.81,1.75-1.9,1.75-1.92-.74-1.92-1.75ZM332.2,48.23h3.19v12.24h-3.19v-12.24Z"/>
        <path class="cls-4" d="M336.98,54.37c0-4.09,2.93-6.45,6.25-6.45,1.51,0,2.67.59,3.56,1.36l-1.53,2.08c-.61-.52-1.18-.81-1.88-.81-1.86,0-3.13,1.51-3.13,3.82s1.27,3.78,3.04,3.78c.87,0,1.7-.41,2.38-.98l1.27,2.12c-1.16,1.03-2.64,1.49-4,1.49-3.39,0-5.97-2.36-5.97-6.4Z"/>
        <path class="cls-4" d="M347.01,59.05l1.46-2.01c1.09.85,2.14,1.33,3.28,1.33,1.22,0,1.77-.53,1.77-1.29,0-.92-1.27-1.33-2.56-1.84-1.55-.59-3.34-1.53-3.34-3.56,0-2.21,1.79-3.76,4.55-3.76,1.79,0,3.15.74,4.17,1.51l-1.44,1.94c-.87-.61-1.73-1.05-2.64-1.05-1.09,0-1.62.48-1.62,1.18,0,.9,1.2,1.23,2.49,1.7,1.62.61,3.41,1.42,3.41,3.69,0,2.14-1.68,3.87-4.87,3.87-1.64,0-3.45-.72-4.66-1.73Z"/>
      </g>
    </g>
    <g>
      <path class="cls-2" d="M193.49,17.22h0c-.09-.07-.19-.13-.29-.18-.02-.01-.05-.03-.07-.04-.09-.04-.18-.08-.28-.11-.06-.02-.12-.03-.18-.05-.07-.02-.15-.04-.23-.05-.1-.02-.21-.02-.31-.03-.11,0-.21.01-.31.03-.08.01-.15.03-.23.05-.06.01-.12.03-.18.05-.1.03-.19.07-.28.11-.02.01-.05.02-.07.04-.1.05-.2.11-.29.18h0c-.09.07-.17.13-.25.21-.44.45-.66,1.06-.66,1.82v4.17c0,.76.22,1.36.66,1.82.41.42.95.64,1.6.67.66-.03,1.19-.25,1.6-.67.44-.45.66-1.06.66-1.82v-4.17c0-.76-.22-1.36-.66-1.82-.08-.08-.16-.14-.25-.21Z"/>
      <rect class="cls-3" x="23.71" y="59.16" width="80" height="1.19"/>
      <path class="cls-1" d="M35.54,15.31h-6.2c-3.42,0-7.36,2.99-8.76,6.65l-4.01,10.54h12.43l6.53-17.15.03-.04h-.01v-.03s0,.03,0,.03Z"/>
      <path class="cls-1" d="M15.65,34.87l-9.7,25.41-.02.04h0v.03s.01-.03.01-.03h6.2c3.42,0,7.36-2.99,8.76-6.64l7.18-18.81h-12.43Z"/>
      <path class="cls-1" d="M67.86,25.04c.91-3.39.75-9.31-12.86-9.31-11.61,0-17.67,6.26-19.65,11.04h10.81c2.27-5.52,12.1-5.16,10.85-1.43-1.1,3.27-5.45,2.77-8.65,3.01h0s-.93,0-.93,0l-1.53,4.15h7.09c5.71,0,12.43-.63,14.87-7.46Z"/>
      <path class="cls-1" d="M33.28,46.72c3.22,1.99,7.79,2.75,16.06,1.71,2.32-.29,5.75-1.31,8.99-3.32,2.62-1.63,6.03-5.62,5.61-10.25h-13.48c1.31.89,1.93,1.81,1.42,3.33-.64,1.92-3.23,3.98-7.3,3.13-4.5-.95-3.12-4.44-2.22-6.46h-11.29c-1.22,3.23-2.65,8.83,2.21,11.85Z"/>
      <path class="cls-1" d="M47.41,12.94c12.16,0,23.43-2.14,32.59-11.75l-.1-.1c-2.15,1.04-13.54,5.9-35.46,2.96-8.88-1.19-11.52-2.96-20.74-2.96S5.46,3.45,0,12.83l.12.12c1.45-.68,7.26-3.09,17.66-3.09,12.29,0,17.34,3.09,29.63,3.09Z"/>
      <path class="cls-3" d="M128.4,32.5l19.75-22.52h-8c-2.28,0-5.44,1.35-7.01,3l-11.03,11.86-5.43-7.75h-10.09l10.19,15.41h11.62Z"/>
      <path class="cls-3" d="M121.8,40.03l5.61,8.47h11.27l-9.56-13.63h-16.33l-12.67,13.63h8.77c2.93,0,6.95-1.78,8.92-3.95l3.99-4.52Z"/>
      <path class="cls-3" d="M67.94,30.97c-.09.32-.39,1.22-.46,1.53h12.16c.7-2.06,1.12-3.04,1.98-4.52,1.83-3.46,5.4-5.41,9.44-5.55,4-.14,4.49,1.92,3.58,3.76-.39.8-1.16,2.16-9.1,2.16h0c-.38,0-.6,0-1.01,0l-1.33,4.15h10.63c6.33,0,12.12-1.18,12.69-6.09,1.17-8.35-7.39-10.43-14.1-10.63-4.39-.13-18.3.79-24.49,15.2Z"/>
      <path class="cls-3" d="M83.17,48.79c11.23-.61,17.94-6.72,21.39-13.92h-11.23c-1.12,2.18-4.58,6.61-9.34,6.61s-5.56-2.9-4.93-6.61h-11.96c-1.72,11.85,6.95,13.92,16.08,13.92Z"/>
      <polygon class="cls-3" points="121.39 54.34 110.76 54.34 109.91 56.54 113.9 56.54 110.19 66.28 113.01 66.28 116.72 56.54 120.54 56.54 121.39 54.34"/>
      <polygon class="cls-3" points="130.79 54.34 129.03 58.92 123.88 58.92 125.64 54.34 122.82 54.34 118.25 66.28 121.05 66.28 123.03 61.13 128.18 61.13 126.21 66.28 129.03 66.28 133.61 54.34 130.79 54.34"/>
      <polygon class="cls-3" points="131.83 66.28 134.63 66.28 139.21 54.34 136.4 54.34 131.83 66.28"/>
      <polygon class="cls-3" points="151.22 18.87 151.01 18.87 148.75 31.32 136.3 33.58 136.3 33.79 148.75 36.06 151.01 48.5 151.22 48.5 153.49 36.06 165.93 33.79 165.93 33.58 153.49 31.32 151.22 18.87"/>
      <path class="cls-3" d="M181.86,0h-4.17c-1.73,0-3.29,1.01-4.01,2.58l-8.13,17.75v5.24h10.64v-5.49h-3.39L181.86,0Z"/>
      <polygon class="cls-3" points="183.44 12.43 178.31 12.43 178.05 12.43 177.75 12.43 177.75 17.09 177.75 30.22 178.05 30.22 178.31 30.22 183.44 30.22 183.74 30.22 184 30.22 184 12.43 183.74 12.43 183.44 12.43"/>
      <path class="cls-3" d="M197.67,14.54c-.49-.67-1.11-1.21-1.86-1.62-.99-.55-2.15-.83-3.48-.83-.03,0-.06,0-.09,0-.03,0-.06,0-.09,0,0,0-.01,0-.02,0s-.01,0-.02,0c-.03,0-.06,0-.09,0-.03,0-.06,0-.09,0-1.33,0-2.49.28-3.48.83-.74.41-1.36.96-1.86,1.62-.16.22-.32.46-.45.71-.55,1-.82,2.18-.82,3.51v5.13c0,1.34.27,2.51.82,3.51.14.25.29.49.45.71.49.67,1.11,1.21,1.86,1.62.74.41,1.58.67,2.52.78.31.03.63.05.96.05.03,0,.06,0,.09,0,.03,0,.06,0,.09,0,0,0,.01,0,.02,0s.01,0,.02,0c.03,0,.06,0,.09,0,.03,0,.06,0,.09,0,.33,0,.65-.02.96-.05.93-.1,1.77-.36,2.52-.78.74-.41,1.36-.96,1.86-1.62.16-.22.32-.46.45-.71.55-1,.82-2.17.82-3.51v-5.13c0-1.34-.27-2.51-.82-3.51-.14-.25-.29-.49-.45-.71ZM194.4,20.5v2.91c0,.76-.22,1.36-.66,1.82-.41.42-.95.64-1.6.67-.66-.03-1.19-.25-1.6-.67-.44-.45-.66-1.06-.66-1.82v-4.17c0-.76.22-1.36.66-1.82.08-.08.16-.14.25-.21h0c.09-.07.19-.13.29-.18.02-.01.05-.03.07-.04.09-.04.18-.08.28-.11.06-.02.12-.03.18-.05.07-.02.15-.04.23-.05.1-.02.21-.02.31-.03.11,0,.21.01.31.03.08.01.15.03.23.05.06.01.12.03.18.05.1.03.19.07.28.11.02.01.05.02.07.04.1.05.2.11.29.18h0c.09.07.17.13.25.21.44.45.66,1.06.66,1.82v1.26Z"/>
      <path class="cls-3" d="M198.37,5.43l-1.75.4v1.22h-.75v1.32h.75v2.3c0,.81.16,1.35.49,1.69.29.3.76.5,1.34.5.5,0,.92-.07,1.15-.15v-1.36c-.13.03-.31.05-.54.05-.53,0-.7-.31-.7-1v-2.03h1.27v-1.32h-1.27v-1.62Z"/>
      <path class="cls-3" d="M203.35,6.93c-.33,0-.66.08-.92.22-.28.15-.51.34-.69.58h-.02v-3.24h-1.79v8.25h1.79v-3.37c0-.13.01-.28.06-.38.12-.32.41-.61.87-.61.65,0,.9.5.9,1.25v3.12h1.79v-3.32c0-1.71-.85-2.5-1.99-2.5Z"/>
    </g>
  </g>
</svg>