<?xml version="1.0" encoding="UTF-8"?>
<svg id="Layer_2" data-name="Layer 2" xmlns="http://www.w3.org/2000/svg" viewBox="0 0 230.53 44.13">
  <defs>
    <style>
      .cls-1 {
        fill: #0074bc;
      }

      .cls-1, .cls-2 {
        stroke-width: 0px;
      }

      .cls-2 {
        fill: #f7941d;
      }
    </style>
  </defs>
  <g id="Layer_1-2" data-name="Layer 1">
    <g>
      <path class="cls-2" d="M2.07,13.3c-.56,0-1.01-.5-1.01-1.07v-.71c0-.56.45-1.04,1.01-1.04h9.97c.56,0,.98-.36.98-.92s-.42-.92-.98-.92H3.56c-.56,0-1.04-.48-1.04-1.07v-.62c0-.56.48-1.04,1.04-1.04h9.05c.62,0,1.34.3,1.78.74l.59.59c.45.45.74,1.16.74,1.78v.42c0,.62.42,1.04,1.04,1.04h.33c.59,0,1.01-.45,1.01-1.01v-4.42c0-.47-.44-.83-1.01-.83H4.18c-.62,0-1.33-.3-1.78-.74l-.59-.59c-.45-.45-.74-1.16-.74-1.78v-.09C1.06.42,1.51,0,2.07,0h.86C3.53,0,3.97.33,3.97.68c0,.39.53.71,1.1.71h14.75c.56,0,1.04.48,1.04,1.04v7.75c0,.62-.3,1.34-.74,1.78l-.59.59c-.45.45-1.16.74-1.78.74H2.07ZM1.01,27.25c-.56,0-1.01-.48-1.01-1.04v-.74c0-.56.45-1.07,1.01-1.07h11.1c.56,0,.89-.33.89-.89s-.33-.92-.89-.92H3.56c-.56,0-1.04-.45-1.04-1.01v-.68c0-.56.48-1.04,1.04-1.04h9.05c.62,0,1.34.3,1.78.74l.59.59c.45.45.74,1.16.74,1.78v.39c0,.62.42,1.04,1.04,1.04h.33c.56,0,1.01-.36,1.01-.83v-4.54c0-.47-.36-.86-.98-.86H4.18c-.62,0-1.33-.3-1.78-.74l-.59-.59c-.45-.45-.74-1.16-.74-1.78v-.09c0-.56.45-.98,1.01-.98h.86c.59,0,1.04.3,1.04.68,0,.45.5.71,1.1.71h14.75c.56,0,1.04.48,1.04,1.07v7.69c0,.62-.3,1.33-.74,1.78l-.59.59c-.45.45-1.16.74-1.78.74H1.01Z"/>
      <path class="cls-2" d="M28.93,25.76l-.71.74c-.45.45-1.19.74-1.78.74h-1.66c-.56,0-1.01-.48-1.01-1.04v-.68c0-.59.45-1.04,1.01-1.04h1.16c.56,0,1.01-.45,1.01-1.04v-10.15c0-.59-.45-1.07-1.01-1.07h-1.1c-.59,0-1.04-.45-1.04-1.04v-.65c0-.59.44-1.07,1.04-1.07h17.69c.56,0,1.04.47,1.04,1.07v.65c0,.59-.48,1.04-1.04,1.04h-1.1c-.59,0-1.04.47-1.04,1.07v10.15c0,.59.45,1.04,1.04,1.04h1.1c.56,0,1.04.45,1.04,1.04v.68c0,.56-.48,1.04-1.04,1.04h-1.66c-.59,0-1.33-.3-1.78-.74l-.74-.74c-.36-.36-.74-1.16-.74-1.72v-10.74c0-.59-.42-1.07-.98-1.07h-5.88c-.62,0-1.07.47-1.07,1.07v10.74c0,.59-.3,1.37-.74,1.72ZM24.84,2.73c-.59,0-1.04-.45-1.04-1.04v-.68C23.8.45,24.24,0,24.84,0h17.69c.56,0,1.04.45,1.04,1.01v.68c0,.59-.48,1.04-1.04,1.04h-17.69Z"/>
      <path class="cls-2" d="M47.98,3.71l.89-2.85c.15-.47.68-.86,1.16-.86h6.2c.47,0,.98.39,1.13.83l.98,2.88c.24.47.56.83.89.83s.56.45.56.92v.92c0,.27-.03.47-.09.65-.06.21-.15.3-.24.3-.24,0-.36.3-.36.89v6.68c0,.5-.33,1.16-.71,1.42l-.71.5c-.45.33-1.1.56-1.6.56h-4.96c-.5,0-.89.39-.89.89v5.91c0,.48-.3,1.19-.62,1.54l-.92.89c-.33.27-.95.62-1.42.62-.45,0-.8-.42-.8-.89v-.92c0-.56.21-.92.53-.92s.56-.42.56-.89v-15.4c0-.47-.24-.89-.56-.89s-.53-.45-.53-.95v-.92c0-.47.27-.92.59-.92.36,0,.68-.36.92-.83ZM50.24,9.47c0,.45.39.8.89.8h4.42c.5,0,.89-.36.89-.8s-.39-.83-.89-.83h-4.42c-.5,0-.89.39-.89.83ZM50.24,13.8c0,.45.39.83.89.83h4.42c.5,0,.89-.39.89-.83s-.39-.83-.89-.83h-4.42c-.5,0-.89.39-.89.83ZM50.62,5.05c-.06.12-.09.24-.09.36,0,.33.21.5.53.5.45,0,.77-.42.77-.92,0-.48.39-.89.86-.89h.86c.47,0,.89.42.89.89,0,.5.33.92.77.92.36,0,.56-.24.56-.56,0-.09-.03-.18-.06-.3l-.53-1.45c-.15-.47-.71-.86-1.19-.86h-1.75c-.47,0-1.01.42-1.16.86l-.47,1.45ZM52.02,27.25c-.5,0-.92-.42-.92-.92v-6.41c0-.5.42-.92.92-.92h6.2c.5,0,.89.36.89.83v4.93c0,.47-.33,1.16-.71,1.42l-.71.5c-.45.33-1.1.56-1.6.56h-4.07ZM53.71,23.6c0,.47.39.89.89.89h.95c.5,0,.89-.42.89-.89v-.95c0-.47-.39-.89-.89-.89h-.95c-.5,0-.89.42-.89.89v.95ZM64.78,26.62c-.36.33-1.04.62-1.51.62h-2.05c-.5,0-.89-.39-.89-.89v-.92c0-.5.39-.92.89-.92h1.51c.47,0,.89-.39.89-.89V.89c0-.48.39-.89.89-.89h.89c.48,0,.86.42.86.89v23.27c0,.5-.27,1.22-.62,1.54l-.86.92ZM61.22,23.27c-.5,0-.89-.42-.89-.92V1.72c0-.48.39-.92.89-.92h.89c.47,0,.89.44.89.92v20.63c0,.5-.42.92-.89.92h-.89Z"/>
      <path class="cls-2" d="M70.18,4.1c-.56,0-1.01-.47-1.01-1.04v-.68c0-.56.45-1.01,1.01-1.01h6.23c.56,0,1.04-.33,1.04-.68,0-.39.45-.68,1.01-.68h.68c.62-.03.98.42.98,1.04,0,.56-.24,1.19-.68,1.57l-.74.77c-.39.36-1.19.71-1.75.71h-6.77ZM72.67,26.36v-.86c0-.27.03-.48.12-.62s.18-.24.27-.24c.21,0,.39-.36.39-.83v-4.69c0-.56-.47-1.01-1.16-1.01h-2.11c-.56,0-1.01-.5-1.01-1.07v-.65c0-.56.45-1.01,1.01-1.01h2.11c.68,0,1.16-.39,1.16-.86s-.47-.89-1.16-.89h-2.11c-.56,0-1.01-.45-1.01-1.01v-.65c0-.59.36-1.04.8-1.04s.77-.47.77-1.04v-.95c0-.59-.33-1.04-.77-1.04s-.8-.47-.8-1.04v-.65c0-.59.45-1.04,1.01-1.04h8.96c.56,0,1.01.45,1.01,1.04v.65c0,.56-.36,1.04-.74,1.04-.45,0-.77.45-.77,1.04v.95c0,.56.33,1.04.77,1.04.39,0,.74.45.74,1.04v.65c0,.56-.45,1.01-1.01,1.01h-1.96c-.56,0-1.04.42-1.04.89s.47.86,1.04.86h1.96c.56,0,1.01.45,1.01,1.01v.65c0,.56-.45,1.07-1.01,1.07h-1.96c-.56,0-1.04.45-1.04,1.01v5.19c0,.45-.21,1.13-.56,1.48l-.8.8c-.33.33-.89.65-1.34.65s-.77-.45-.77-.89ZM71.67,25.85l-.56.59c-.36.45-.95.8-1.28.8-.39,0-.65-.45-.65-1.04v-.65c0-.3.03-.53.12-.74.06-.21.15-.3.24-.3s.18-.09.24-.3.09-.45.09-.74v-3c0-.56.47-1.01,1.07-1.01h.39c.56,0,1.01.45,1.01,1.01v3.56c0,.56-.3,1.34-.65,1.81ZM73.27,9.88c0,.56.47,1.04,1.04,1.04h.8c.59,0,1.07-.47,1.07-1.04v-.95c0-.59-.47-1.04-1.07-1.04h-.8c-.56,0-1.04.45-1.04,1.04v.95ZM78.22,26.47l-.56-.65c-.36-.45-.65-1.22-.65-1.78v-3.56c0-.56.48-1.01,1.04-1.01h.36c.59,0,1.07.45,1.07,1.01v3c0,.3.03.53.09.74s.15.3.24.3.18.09.27.3c.06.21.09.44.09.74v.65c0,.59-.27,1.04-.65,1.04-.33,0-.89-.33-1.28-.77ZM82.74,26.44c-.59.47-1.07.8-1.4.8-.36,0-.65-.48-.65-1.04v-.65c0-.3.03-.53.12-.74.06-.21.15-.3.27-.3.09,0,.18-.09.24-.3s.09-.45.09-.74V2.41c0-.56.47-1.01,1.04-1.01h2.79c.59,0,1.04-.33,1.04-.71,0-.36.45-.68,1.04-.68h.62c.68,0,1.01.45,1.01,1.04s-.24,1.16-.71,1.63l-.71.74c-.36.36-1.16.71-1.72.71h-.77c-.56,0-1.04.45-1.04,1.01v2.88c0,.56.47,1.04,1.04,1.04h2.91c.59,0,1.04.45,1.04,1.04v.65c0,.56-.27,1.04-.59,1.04s-.53.42-.53,1.01v13.42c0,.56-.45,1.04-1.01,1.04h-.15c-.56,0-1.01-.48-1.01-1.04v-13.42c0-.56-.36-1.01-.86-1.01-.45,0-.83.45-.83,1.01v11.25c0,.56-.33,1.34-.68,1.81l-.56.59Z"/>
      <path class="cls-2" d="M94.84,25.76l-.68.74c-.45.45-1.13.74-1.51.74-.45,0-.77-.48-.77-1.04v-.68c0-.59.21-1.04.47-1.04.33,0,.5-.45.5-1.04V1.01c0-.56.39-1.01.86-1.01h16.95c.56,0,1.01.45,1.01,1.01v4.6c0,.59-.33,1.33-.71,1.81l-.71.68c-.45.45-1.22.77-1.78.77h-11.84c-.56,0-1.04.33-1.04.77s.47.8,1.04.8h14.04c.56,0,1.01.47,1.01,1.04v12.55c0,.56-.33,1.37-.71,1.72l-.71.74c-.45.45-1.19.74-1.78.74h-8.04c-.5,0-1.01-.48-1.01-1.04v-.68c0-.59.5-1.04,1.01-1.04h7.45c.59,0,1.04-.45,1.04-1.04v-9.2c0-.59-.44-1.04-1.04-1.04h-11.25c-.56,0-1.04.45-1.04,1.04v9.79c0,.59-.3,1.37-.74,1.72ZM95.58,5.05c0,.56.47,1.04,1.04,1.04h11.25c.59,0,1.04-.47,1.04-1.04v-1.25c0-.59-.44-1.07-1.04-1.07h-11.25c-.56,0-1.04.47-1.04,1.07v1.25ZM98.29,23.12c-.56,0-1.04-.45-1.04-1.04v-6.26c0-.56.47-1.01,1.04-1.01h8.07c.59,0,1.04.45,1.04,1.01v4.04c0,.59-.3,1.37-.74,1.81l-.74.71c-.39.44-1.16.74-1.75.74h-5.88ZM100.01,19.32c0,.59.45,1.04,1.04,1.04h2.58c.56,0,1.01-.45,1.01-1.04v-.74c0-.56-.45-1.04-1.01-1.04h-2.58c-.59,0-1.04.47-1.04,1.04v.74Z"/>
      <path class="cls-1" d="M120.87,27.25c-.56,0-.95-.45-.95-1.04v-.65c0-.59.3-1.04.65-1.04.45,0,.71-.42.71-1.01v-14.69c0-.59-.27-1.07-.71-1.07-.36,0-.65-.42-.65-.98v-.68c0-.56.45-1.01,1.01-1.01h8.13c.56,0,1.04.45,1.04,1.01v.68c0,.56-.47.98-1.04.98h-3.92c-.56,0-1.01.5-1.01,1.07v1.63c0,.59.44,1.04,1.01,1.04h3.92c.56,0,1.04.45,1.04,1.01v11.63c0,.62-.3,1.33-.74,1.78l-.59.59c-.45.45-1.16.74-1.78.74h-.77c-.56,0-1.01-.48-1.01-1.04v-.65c0-.59.45-1.04,1.01-1.04h.15c.56,0,1.01-.45,1.01-1.01v-8.28c0-.59-.45-1.04-1.01-1.04h-1.22c-.56,0-1.01.45-1.01,1.04v8.9c0,.62-.3,1.33-.74,1.78l-.59.59c-.45.45-1.16.74-1.78.74h-.15ZM121.34,3.24l-.65-.59c-.47-.45-.74-1.04-.74-1.6,0-.59.36-1.01.98-1.01h.68c.59,0,1.04.24,1.04.56s.39.56,1.1.56h5.34c.59,0,1.04.5,1.04,1.13v.59c0,.59-.45,1.07-1.04,1.07h-5.97c-.59,0-1.39-.27-1.78-.71ZM132.86,23.42c.21-.21.3-.47.3-.8s-.09-.59-.3-.8l-.5-.62c-.36-.47-.68-1.25-.59-1.84V5.4c0-.74-.21-1.19-.45-1.57-.15-.24-.36-.95-.36-1.57v-1.25c0-.56.48-1.01,1.04-1.01h.65c.56,0,1.13.36,1.13.8s.44.83,1.01.83h3.89c.59,0,1.04.44,1.04,1.04v.65c0,.27-.03.5-.12.71s-.18.33-.27.33-.18.09-.24.3c-.09.21-.12.45-.12.74v13.95c0,.59-.33,1.37-.68,1.84l-.5.62c-.15.21-.24.47-.24.8,0,.27.09.53.24.8l.24.3c.36.45.86.8,1.13.8.33,0,.56.45.56,1.04v.65c0,.56-.45,1.04-1.04,1.04h-.24c-.56,0-1.34-.36-1.69-.8l-.68-.86c-.18-.21-.42-.33-.68-.33s-.48.12-.65.33l-.71.86c-.39.45-1.22.8-1.81.8h-.21c-.56,0-1.04-.48-1.04-1.04v-.65c0-.59.18-1.04.5-1.04s.83-.36,1.19-.8l.21-.3ZM135,19.86c.12.15.24.24.39.24.33,0,.59-.33.74-.92.09-.3.12-.59.12-.86V5.4c0-.62-.39-1.01-.83-1.01-.47,0-.86.39-.86,1.01v12.91c0,.56.18,1.22.45,1.54Z"/>
      <path class="cls-1" d="M149.63,25.76l-.71.74c-.45.45-1.19.74-1.78.74h-3.5c-.56,0-1.01-.48-1.01-1.04V1.04c0-.56.45-1.04,1.01-1.04h5.7c.59,0,1.04.47,1.04,1.04v23c0,.59-.3,1.37-.74,1.72ZM145.38,6.92c0,.56.45,1.01,1.01,1.01h.21c.56,0,1.01-.45,1.01-1.01v-3.12c0-.59-.45-1.04-1.01-1.04h-.21c-.56,0-1.01.45-1.01,1.04v3.12ZM146.39,15.91h.21c.56,0,1.01-.47,1.01-1.07v-3.15c0-.56-.45-1.01-1.01-1.01h-.21c-.56,0-1.01.45-1.01,1.01v3.15c0,.59.45,1.07,1.01,1.07ZM146.39,24.49h.21c.56,0,1.01-.45,1.01-1.04v-3.77c0-.56-.45-1.01-1.01-1.01h-.21c-.56,0-1.01.45-1.01,1.01v3.77c0,.59.45,1.04,1.01,1.04ZM151.7,25.73c-.45-.36-.74-1.13-.74-1.72V1.01c0-.56.36-1.01.8-1.01h9.62c.59,0,1.04.39,1.04.95v9.29c0,.56-.33,1.37-.71,1.72l-.77.74c-.45.45-1.19.77-1.75.77h-4.45c-.59,0-1.04.27-1.04.71,0,.39.47.68,1.04.68h1.66c.59,0,1.19.47,1.31,1.04l.39,1.42c.12.56.56,1.01.92,1.01s.68-.47.68-1.04v-1.66c0-.56.45-1.07,1.01-1.07h.68c.59,0,1.04.47,1.04,1.07v2.2c0,.59-.33,1.33-.71,1.81l-.77.71c-.45.45-.98.77-1.31.77-.24,0-.39.24-.39.59,0,.06.03.18.06.39l.39,1.37c.15.56.68,1.01,1.28,1.01h.42c.59,0,1.04.45,1.04,1.04v.68c0,.56-.45,1.04-1.04,1.04h-2.43c-.59,0-1.19-.45-1.31-1.01l-1.84-7.57c-.15-.56-.68-1.01-1.19-1.01-.47,0-.92.45-.92,1.01v4.78c0,.59.47,1.04,1.04,1.04h1.25c.5,0,1.01.45,1.01,1.04v.68c0,.56-.5,1.04-1.01,1.04h-1.81c-.59,0-1.33-.3-1.78-.74l-.68-.77ZM153.69,4.22c0,.56.47,1.01,1.04,1.01h3.92c.56,0,1.04-.45,1.04-1.01v-.44c0-.56-.48-1.04-1.04-1.04h-3.92c-.56,0-1.04.47-1.04,1.04v.44ZM153.69,9.68c0,.56.47,1.04,1.04,1.04h3.92c.56,0,1.04-.47,1.04-1.04v-.65c0-.59-.48-1.04-1.04-1.04h-3.92c-.56,0-1.04.45-1.04,1.04v.65Z"/>
      <path class="cls-1" d="M182.83,7.42l-.71-.74c-.39-.47-.74-1.22-.74-1.78v-1.16c0-.56-.44-1.04-1.01-1.04h-10.27c-.56,0-1.04.47-1.04,1.04v1.16c0,.56-.36,1.34-.74,1.78l-.71.74c-.45.39-1.13.71-1.51.71-.45,0-.77-.45-.77-1.07v-.65c0-.56.21-1.01.47-1.01.33,0,.5-.45.5-1.04V1.01c0-.56.47-1.01,1.04-1.01h15.79c.56,0,1.04.45,1.04,1.01v3.35c0,.59.15,1.04.47,1.04.27,0,.48.45.48,1.01v.65c0,.68-.27,1.04-.8,1.04-.45,0-.92-.24-1.48-.68ZM166.33,27.25c-.56,0-1.01-.48-1.01-1.04v-.68c0-.59.45-1.04,1.01-1.04h6.59c.59,0,1.07-.45,1.07-1.04v-2.76c0-.59-.5-1.07-1.07-1.07h-5.88c-.56,0-1.01-.45-1.01-1.04v-.68c0-.56.44-1.07,1.01-1.07h5.88c.56,0,1.07-.45,1.07-1.01v-2.25c0-.59-.47-1.04-1.07-1.04h-6.59c-.56,0-1.01-.47-1.01-1.07v-.68c0-.56.45-1.01,1.01-1.01h17.75c.59,0,1.04.44,1.04,1.01v.68c0,.59-.45,1.07-1.04,1.07h-6.32c-.56,0-1.01.45-1.01,1.04v2.25c0,.56.44,1.01,1.01,1.01h5.58c.59,0,1.04.47,1.04,1.07v.68c0,.59-.45,1.04-1.04,1.04h-5.58c-.56,0-1.01.47-1.01,1.07v2.76c0,.59.44,1.04,1.01,1.04h6.32c.59,0,1.04.45,1.04,1.04v.68c0,.56-.45,1.04-1.04,1.04h-17.75Z"/>
      <path class="cls-1" d="M190.82,26.59l-.62-.56c-.48-.48-.8-1.16-.8-1.72V7.21c0-.59-.27-1.07-.71-1.07-.36,0-.65-.45-.65-1.04v-.68c0-.56.3-1.01.65-1.01.45,0,.71-.45.71-1.04v-1.37c0-.56.45-1.01,1.01-1.01h.71c.62,0,1.07.45,1.07,1.01v1.37c0,.56.45,1.04,1.04,1.04h1.42c.59,0,1.04-.47,1.04-1.04v-1.37c0-.56.45-1.01,1.04-1.01h.68c.56,0,1.04.45,1.04,1.01v1.37c0,.56.45,1.04,1.01,1.04h2.11c.56,0,1.01-.47,1.01-1.04v-1.37c0-.56.44-1.01,1.04-1.01h.68c.56,0,1.07.45,1.07,1.01v1.37c0,.56.45,1.04,1.01,1.04h.39c.59,0,1.07.45,1.07,1.01v.68c0,.59-.48,1.04-1.07,1.04h-.39c-.56,0-1.01.47-1.01,1.07v11.19c0,.56-.33,1.34-.77,1.78l-.71.71c-.45.45-1.22.77-1.78.77h-5.4c-.59,0-1.01-.47-1.01-1.07V7.21c0-.59-.45-1.07-1.04-1.07h-1.42c-.59,0-1.04.47-1.04,1.07v16.23c0,.59.45,1.04,1.04,1.04h13.53c.59,0,1.07.45,1.07,1.04v.68c0,.56-.48,1.04-1.07,1.04h-14.1c-.56,0-1.37-.3-1.84-.65ZM199.45,18.91h2.11c.56,0,1.01-.47,1.01-1.07V7.21c0-.59-.45-1.07-1.01-1.07h-2.11c-.56,0-1.01.47-1.01,1.07v10.62c0,.59.45,1.07,1.01,1.07Z"/>
      <path class="cls-1" d="M214.86,17.07c-.12.18-.18.36-.18.5,0,.27.21.45.47.45.45,0,.77.45.77,1.01v5.02c0,.56-.33,1.37-.71,1.72l-.74.74c-.39.45-1.16.74-1.75.74h-.98c-.56,0-1.01-.48-1.01-1.04v-.68c0-.59.45-1.04,1.01-1.04h.42c.56,0,1.04-.45,1.04-1.04v-2.82c0-.56-.48-1.01-1.04-1.01h-.42c-.56,0-1.01-.45-1.01-1.04v-.71c0-.59.21-1.04.53-1.04.36,0,.8-.33,1.04-.89l.21-.47c.06-.15.09-.3.09-.39,0-.36-.24-.56-.62-.56-.56,0-1.01-.47-1.01-1.04V1.01c0-.56.45-1.01,1.04-1.01h17.21c.56,0,1.01.45,1.01,1.01v10.27c0,.56-.3,1.37-.68,1.75l-.62.59c-.27.33-.39.68-.39,1.13,0,.21.03.42.12.56l.27.59c.27.56.68.92,1.01.92s.59.47.59,1.04v.71c0,.59-.36,1.04-.83,1.04-.56,0-.89.42-.89,1.01v5.58c0,.56-.47,1.04-1.04,1.04h-.71c-.56,0-1.01-.48-1.01-1.04v-7c0-.59.18-1.04.5-1.04.09,0,.15-.09.15-.27s-.06-.39-.18-.65l-1.01-1.81c-.33-.5-.98-.92-1.57-.92h-6.65c-.56,0-1.22.42-1.54.92l-.89,1.63ZM214.74,5.91h3.47c.56,0,1.04-.47,1.04-1.04v-1.1c0-.56-.47-1.04-1.04-1.04h-3.47c-.56,0-1.01.47-1.01,1.04v1.1c0,.56.44,1.04,1.01,1.04ZM214.74,11.78h3.47c.56,0,1.04-.47,1.04-1.04v-1.07c0-.56-.47-1.04-1.04-1.04h-3.47c-.56,0-1.01.47-1.01,1.04v1.07c0,.56.44,1.04,1.01,1.04ZM221.98,4.87c0,.56.47,1.04,1.04,1.04h3.44c.59,0,1.04-.47,1.04-1.04v-1.1c0-.56-.45-1.04-1.04-1.04h-3.44c-.56,0-1.04.47-1.04,1.04v1.1ZM221.98,10.74c0,.56.47,1.04,1.04,1.04h3.44c.59,0,1.04-.47,1.04-1.04v-1.07c0-.56-.45-1.04-1.04-1.04h-3.44c-.56,0-1.04.47-1.04,1.04v1.07Z"/>
    </g>
    <g>
      <path class="cls-2" d="M1.68,41.75c-.3,0-.45-.15-.45-.45v-.12c0-.28.13-.45.39-.45s.39-.17.39-.45v-5.14c0-.28-.13-.45-.39-.45s-.39-.17-.39-.45v-.12c0-.3.15-.45.45-.45h1.71c.3,0,.45.15.45.45v.12c0,.3-.13.45-.39.45s-.41.17-.41.45v5.14c0,.28.15.45.41.45s.39.17.39.45v.12c0,.3-.15.45-.45.45h-1.71Z"/>
      <path class="cls-2" d="M5.19,41.77c-.3,0-.45-.15-.45-.45v-3.97c0-.21.08-.41.22-.55l.37-.37c.15-.15.34-.22.55-.22h1.39c.21,0,.39.08.55.24l.36.36c.15.15.23.34.23.55v3.97c0,.3-.15.45-.45.45h-.11c-.3,0-.45-.15-.45-.45v-3.64c0-.3-.15-.45-.45-.45h-.74c-.3,0-.45.15-.45.45v3.64c0,.3-.15.45-.45.45h-.12Z"/>
      <path class="cls-2" d="M10.22,41.77c-.3,0-.45-.15-.45-.45v-3.97c0-.21.08-.41.22-.55l.37-.37c.15-.15.34-.22.55-.22h1.39c.21,0,.39.08.55.24l.36.36c.15.15.23.34.23.55v3.97c0,.3-.15.45-.45.45h-.11c-.3,0-.45-.15-.45-.45v-3.64c0-.3-.15-.45-.45-.45h-.74c-.3,0-.45.15-.45.45v3.64c0,.3-.15.45-.45.45h-.12Z"/>
      <path class="cls-2" d="M15.29,41.53l-.37-.37c-.15-.15-.22-.34-.22-.55v-3.26c0-.21.08-.41.22-.55l.37-.37c.15-.15.34-.22.55-.22h1.39c.21,0,.41.08.55.22l.36.36c.15.16.22.35.22.56v3.26c.01.21-.07.41-.22.56l-.36.36c-.15.15-.34.23-.55.23h-1.39c-.21,0-.4-.08-.55-.23ZM15.71,40.28c0,.3.15.45.45.45h.73c.3,0,.45-.15.45-.45v-2.61c0-.3-.15-.45-.45-.45h-.73c-.3,0-.45.15-.45.45v2.61Z"/>
      <path class="cls-2" d="M20.15,41.35l-.87-4.67s-.01-.07-.01-.12c0-.24.16-.36.42-.36h.13c.28,0,.44.13.48.42l.6,3.7c.04.28.09.42.13.42s.09-.13.14-.42l.57-3.7c.04-.28.2-.42.48-.42h.13c.26,0,.42.12.42.36,0,.06,0,.09-.01.12l-.83,4.67c-.04.27-.21.41-.5.41h-.8c-.28,0-.44-.14-.49-.41Z"/>
      <path class="cls-2" d="M24.28,41.52l-.37-.37c-.15-.15-.22-.34-.22-.55v-1.3c0-.23.07-.38.24-.55l.36-.36c.15-.15.34-.22.55-.22h1.07c.3,0,.45-.15.45-.45v-.03c0-.3-.15-.45-.45-.45h-1.73c-.3,0-.45-.15-.45-.45v-.12c0-.3.15-.45.45-.45h2.06c.21,0,.41.08.55.22l.37.37c.15.15.22.34.22.55v3.95c0,.3-.15.45-.45.45h-2.09c-.21,0-.4-.08-.55-.22ZM24.7,40.37c0,.3.15.45.45.45h.74c.3,0,.45-.15.45-.45v-.84c0-.3-.15-.45-.45-.45h-.74c-.3,0-.45.15-.45.45v.84Z"/>
      <path class="cls-2" d="M29.5,41.16c-.15-.15-.23-.34-.23-.55v-2.95c0-.28-.16-.45-.44-.45-.3,0-.45-.15-.45-.45v-.11c0-.28.17-.45.45-.45s.44-.17.44-.45v-.58c0-.3.15-.45.45-.45h.12c.3,0,.45.15.45.45v.58c0,.3.15.45.45.45h.45c.3,0,.45.15.45.45v.11c0,.3-.15.45-.45.45h-.45c-.3,0-.45.15-.45.45v2.62c0,.3.15.45.45.45h.45c.3,0,.45.15.45.45v.12c0,.3-.15.45-.45.45h-.78c-.21,0-.41-.08-.55-.23l-.37-.37Z"/>
      <path class="cls-2" d="M33.02,41.51l-.36-.36c-.15-.15-.22-.34-.22-.55v-3.26c0-.21.08-.41.22-.55l.36-.36c.15-.15.34-.22.55-.22h1.38c.21,0,.41.08.55.22l.36.36c.15.15.22.34.22.55v1.88c0,.3-.15.45-.45.45h-1.73c-.3,0-.45.15-.45.45v.16c0,.3.15.45.45.45h1.73c.3,0,.45.15.45.45v.12c0,.3-.15.45-.45.45h-2.07c-.21,0-.39-.08-.55-.24ZM33.46,38.31c0,.3.15.45.45.45h.71c.3,0,.45-.15.45-.45v-.65c0-.3-.15-.45-.45-.45h-.71c-.3,0-.45.15-.45.45v.65Z"/>
      <path class="cls-2" d="M40.85,40.76l.62-3.29c.06-.27.21-.4.5-.4h.24c.27,0,.43.13.48.4l.57,2.89c.06.27.09.4.1.4h.01l.74-4.16c.04-.27.2-.4.48-.4h.12c.27,0,.42.15.42.37,0,.06,0,.09-.01.12l-.92,4.68c-.06.27-.21.41-.48.41h-.71c-.28,0-.44-.14-.48-.42l-.29-1.92c-.03-.21-.08-.31-.13-.31s-.1.1-.13.3l-.29,1.93c-.04.28-.2.42-.48.42h-.72c-.27,0-.43-.14-.48-.41l-.96-4.68s-.01-.08-.01-.14c0-.24.14-.36.42-.36h.12c.28,0,.45.13.5.4l.67,3.76c.02.12.04.21.06.28.01.07.03.11.04.12h.02Z"/>
      <path class="cls-2" d="M46.32,35.41c-.11-.11-.17-.22-.17-.35,0-.24.28-.52.52-.52s.52.28.52.52-.28.52-.52.52c-.12,0-.24-.06-.35-.17ZM46.61,41.75c-.3,0-.45-.15-.45-.45v-4.66c0-.3.15-.45.45-.45h.11c.3,0,.45.15.45.45v4.66c0,.3-.15.45-.45.45h-.11Z"/>
      <path class="cls-2" d="M49.31,41.16c-.15-.15-.23-.34-.23-.55v-2.95c0-.28-.16-.45-.44-.45-.3,0-.45-.15-.45-.45v-.11c0-.28.17-.45.45-.45s.44-.17.44-.45v-.58c0-.3.15-.45.45-.45h.12c.3,0,.45.15.45.45v.58c0,.3.15.45.45.45h.45c.3,0,.45.15.45.45v.11c0,.3-.15.45-.45.45h-.45c-.3,0-.45.15-.45.45v2.62c0,.3.15.45.45.45h.45c.3,0,.45.15.45.45v.12c0,.3-.15.45-.45.45h-.78c-.21,0-.41-.08-.55-.23l-.37-.37Z"/>
      <path class="cls-2" d="M52.7,41.77c-.3,0-.45-.15-.45-.45v-7.2c0-.3.15-.45.45-.45h.12c.3,0,.45.15.45.45v1.63c0,.3.15.45.45.45h1.04c.21,0,.4.08.55.22l.37.37c.15.15.22.34.22.55v3.97c0,.3-.15.45-.45.45h-.12c-.3,0-.45-.15-.45-.45v-3.64c0-.3-.15-.45-.45-.45h-.71c-.3,0-.45.15-.45.45v3.64c0,.3-.15.45-.45.45h-.12Z"/>
      <path class="cls-2" d="M59.5,41.75c-.3,0-.45-.15-.45-.45v-7.17c0-.3.15-.45.45-.45h2.87c.21,0,.39.08.55.24l.36.36c.15.15.22.34.22.55v5.78c.01.21-.07.41-.22.56l-.36.36c-.15.15-.34.23-.55.23h-2.87ZM60.08,40.28c0,.3.15.45.45.45h1.51c.3,0,.45-.15.45-.45v-5.13c0-.3-.15-.45-.45-.45h-1.51c-.3,0-.45.15-.45.45v5.13Z"/>
      <path class="cls-2" d="M64.92,35.41c-.11-.11-.17-.22-.17-.35,0-.24.28-.52.52-.52s.52.28.52.52-.28.52-.52.52c-.12,0-.24-.06-.35-.17ZM65.21,41.75c-.3,0-.45-.15-.45-.45v-4.66c0-.3.15-.45.45-.45h.11c.3,0,.45.15.45.45v4.66c0,.3-.15.45-.45.45h-.11Z"/>
      <path class="cls-2" d="M67.67,41.35l-.87-4.67s-.01-.07-.01-.12c0-.24.16-.36.42-.36h.13c.28,0,.44.13.48.42l.6,3.7c.04.28.09.42.13.42s.09-.13.14-.42l.57-3.7c.04-.28.2-.42.48-.42h.13c.26,0,.42.12.42.36,0,.06,0,.09-.01.12l-.83,4.67c-.04.27-.21.41-.5.41h-.8c-.28,0-.44-.14-.49-.41Z"/>
      <path class="cls-2" d="M71.79,41.51l-.36-.36c-.15-.15-.22-.34-.22-.55v-3.26c0-.21.08-.41.22-.55l.36-.36c.15-.15.34-.22.55-.22h1.38c.21,0,.41.08.55.22l.36.36c.15.15.22.34.22.55v1.88c0,.3-.15.45-.45.45h-1.73c-.3,0-.45.15-.45.45v.16c0,.3.15.45.45.45h1.73c.3,0,.45.15.45.45v.12c0,.3-.15.45-.45.45h-2.07c-.21,0-.39-.08-.55-.24ZM72.23,38.31c0,.3.15.45.45.45h.71c.3,0,.45-.15.45-.45v-.65c0-.3-.15-.45-.45-.45h-.71c-.3,0-.45.15-.45.45v.65Z"/>
      <path class="cls-2" d="M76.55,41.74c-.3,0-.45-.15-.45-.45v-3.95c0-.21.08-.41.22-.55l.37-.37c.15-.15.34-.22.55-.22h.27c.3,0,.45.15.45.45v.12c0,.3-.15.45-.45.45-.26,0-.39.17-.39.45v3.62c0,.3-.15.45-.45.45h-.12Z"/>
      <path class="cls-2" d="M79.24,41.53l-.37-.37c-.15-.15-.22-.34-.22-.55h0c0-.31.15-.46.45-.46h.12c.28,0,.45.11.45.29s.17.29.45.29h.72c.3,0,.45-.15.45-.45v-.34c0-.3-.15-.45-.45-.45h-1.06c-.22,0-.37-.07-.55-.21l-.34-.29c-.18-.15-.25-.32-.25-.55v-1.1c0-.22.07-.38.24-.55l.36-.36c.15-.15.34-.22.55-.22h1.37c.23,0,.42.08.56.22l.36.36c.15.15.22.34.22.55v.02c0,.3-.15.45-.45.45h-.12c-.28,0-.45-.11-.45-.3,0-.18-.17-.29-.45-.29h-.72c-.3,0-.45.15-.45.45v.46c0,.3.15.45.45.45h1.05c.21,0,.41.08.55.22l.37.37c.15.15.22.34.22.55v.89c0,.21-.08.41-.22.55l-.37.37c-.15.15-.34.23-.55.23h-1.37c-.21,0-.4-.08-.55-.23Z"/>
      <path class="cls-2" d="M83.72,35.41c-.11-.11-.17-.22-.17-.35,0-.24.28-.52.52-.52s.52.28.52.52-.28.52-.52.52c-.12,0-.24-.06-.35-.17ZM84.01,41.75c-.3,0-.45-.15-.45-.45v-4.66c0-.3.15-.45.45-.45h.11c.3,0,.45.15.45.45v4.66c0,.3-.15.45-.45.45h-.11Z"/>
      <path class="cls-2" d="M86.71,41.16c-.15-.15-.23-.34-.23-.55v-2.95c0-.28-.16-.45-.44-.45-.3,0-.45-.15-.45-.45v-.11c0-.28.17-.45.45-.45s.44-.17.44-.45v-.58c0-.3.15-.45.45-.45h.12c.3,0,.45.15.45.45v.58c0,.3.15.45.45.45h.45c.3,0,.45.15.45.45v.11c0,.3-.15.45-.45.45h-.45c-.3,0-.45.15-.45.45v2.62c0,.3.15.45.45.45h.45c.3,0,.45.15.45.45v.12c0,.3-.15.45-.45.45h-.78c-.21,0-.41-.08-.55-.23l-.37-.37Z"/>
      <path class="cls-2" d="M89.63,43.68v-.12c0-.3.15-.45.45-.45h1.64c.3,0,.45-.15.45-.45v-.7c0-.3-.15-.45-.45-.45h-1.05c-.21,0-.4-.08-.55-.22l-.37-.37c-.15-.15-.22-.34-.22-.55v-3.71c0-.3.15-.45.45-.45h.12c.3,0,.45.15.45.45v3.38c0,.3.15.45.45.45h.72c.3,0,.45-.15.45-.45v-3.38c0-.3.15-.45.45-.45h.12c.3,0,.45.15.45.45v6.33c0,.21-.08.4-.23.55l-.37.37c-.15.15-.34.22-.55.22h-1.97c-.3,0-.45-.15-.45-.45Z"/>
      <path class="cls-1" d="M99.1,41.5l-.36-.36c-.15-.15-.22-.34-.22-.55v-6.48c0-.3.15-.45.45-.45h3.54c.3,0,.45.15.45.45v.12c0,.3-.15.45-.45.45h-2.53c-.3,0-.45.15-.45.45v1.51c0,.3.15.45.45.45h2.53c.3,0,.45.15.45.45v.12c0,.3-.15.45-.45.45h-2.53c-.3,0-.45.15-.45.45v1.7c0,.3.15.45.45.45h2.53c.3,0,.45.15.45.45v.12c0,.3-.15.45-.45.45h-2.86c-.21,0-.39-.08-.55-.24Z"/>
      <path class="cls-1" d="M103.53,41.57c0-.07.02-.15.07-.24l.99-1.95c.06-.12.09-.22.09-.31s-.02-.19-.08-.29l-1.01-2.06c-.04-.09-.07-.17-.07-.24,0-.18.12-.29.35-.29h.16c.25,0,.43.11.53.33l.54,1.12c.08.17.18.26.3.26s.23-.09.32-.26l.57-1.12c.11-.21.29-.33.53-.33h.11c.26,0,.38.09.38.28,0,.08-.02.16-.07.25l-1.06,2.04c-.06.12-.09.23-.09.32,0,.08.02.17.08.29l.97,1.97c.04.09.07.17.07.25,0,.18-.12.28-.34.28h-.16c-.25,0-.43-.11-.53-.33l-.52-1.05c-.08-.17-.18-.26-.3-.26s-.23.09-.32.26l-.54,1.05c-.1.21-.28.33-.53.33h-.06c-.24,0-.39-.11-.39-.29Z"/>
      <path class="cls-1" d="M108.57,41.51l-.36-.36c-.15-.15-.22-.34-.22-.55v-3.26c0-.21.08-.41.22-.55l.36-.36c.15-.15.34-.22.55-.22h1.38c.21,0,.41.08.55.22l.36.36c.15.15.22.34.22.55v1.88c0,.3-.15.45-.45.45h-1.73c-.3,0-.45.15-.45.45v.16c0,.3.15.45.45.45h1.73c.3,0,.45.15.45.45v.12c0,.3-.15.45-.45.45h-2.07c-.21,0-.39-.08-.55-.24ZM109.01,38.31c0,.3.15.45.45.45h.71c.3,0,.45-.15.45-.45v-.65c0-.3-.15-.45-.45-.45h-.71c-.3,0-.45.15-.45.45v.65Z"/>
      <path class="cls-1" d="M113.36,41.52l-.37-.37c-.15-.15-.22-.34-.22-.55v-3.25c0-.21.08-.41.22-.55l.37-.37c.15-.15.34-.22.55-.22h2.06c.3,0,.45.15.45.45v.12c0,.3-.15.45-.45.45h-1.73c-.3,0-.45.15-.45.45v2.6c0,.3.15.45.45.45h1.73c.3,0,.45.15.45.45v.12c0,.3-.15.45-.45.45h-2.06c-.21,0-.4-.08-.55-.22Z"/>
      <path class="cls-1" d="M118.03,41.53l-.37-.37c-.15-.15-.22-.34-.22-.55v-3.96c0-.3.15-.45.45-.45h.12c.3,0,.45.15.45.45v3.63c0,.3.15.45.45.45h.72c.3,0,.45-.15.45-.45v-3.63c0-.3.15-.45.45-.45h.12c.3,0,.45.15.45.45v3.96c.01.21-.07.41-.22.56l-.36.36c-.15.15-.34.23-.55.23h-1.38c-.21,0-.41-.08-.55-.23Z"/>
      <path class="cls-1" d="M123.23,41.16c-.15-.15-.23-.34-.23-.55v-2.95c0-.28-.16-.45-.44-.45-.3,0-.45-.15-.45-.45v-.11c0-.28.17-.45.45-.45s.44-.17.44-.45v-.58c0-.3.15-.45.45-.45h.12c.3,0,.45.15.45.45v.58c0,.3.15.45.45.45h.45c.3,0,.45.15.45.45v.11c0,.3-.15.45-.45.45h-.45c-.3,0-.45.15-.45.45v2.62c0,.3.15.45.45.45h.45c.3,0,.45.15.45.45v.12c0,.3-.15.45-.45.45h-.78c-.21,0-.41-.08-.55-.23l-.37-.37Z"/>
      <path class="cls-1" d="M126.75,41.51l-.36-.36c-.15-.15-.22-.34-.22-.55v-3.26c0-.21.08-.41.22-.55l.36-.36c.15-.15.34-.22.55-.22h1.38c.21,0,.41.08.55.22l.36.36c.15.15.22.34.22.55v1.88c0,.3-.15.45-.45.45h-1.73c-.3,0-.45.15-.45.45v.16c0,.3.15.45.45.45h1.73c.3,0,.45.15.45.45v.12c0,.3-.15.45-.45.45h-2.07c-.21,0-.39-.08-.55-.24ZM127.19,38.31c0,.3.15.45.45.45h.71c.3,0,.45-.15.45-.45v-.65c0-.3-.15-.45-.45-.45h-.71c-.3,0-.45.15-.45.45v.65Z"/>
      <path class="cls-1" d="M134.58,40.76l.62-3.29c.06-.27.21-.4.5-.4h.24c.27,0,.43.13.48.4l.57,2.89c.06.27.09.4.1.4h.01l.74-4.16c.04-.27.2-.4.48-.4h.12c.27,0,.42.15.42.37,0,.06,0,.09-.01.12l-.92,4.68c-.06.27-.21.41-.48.41h-.71c-.28,0-.44-.14-.48-.42l-.29-1.92c-.03-.21-.08-.31-.13-.31s-.1.1-.13.3l-.29,1.93c-.04.28-.2.42-.48.42h-.72c-.27,0-.43-.14-.48-.41l-.96-4.68s-.01-.08-.01-.14c0-.24.14-.36.42-.36h.12c.28,0,.45.13.5.4l.67,3.76c.02.12.04.21.06.28.01.07.03.11.04.12h.02Z"/>
      <path class="cls-1" d="M140.05,35.41c-.11-.11-.17-.22-.17-.35,0-.24.28-.52.52-.52s.52.28.52.52-.28.52-.52.52c-.12,0-.24-.06-.35-.17ZM140.34,41.75c-.3,0-.45-.15-.45-.45v-4.66c0-.3.15-.45.45-.45h.11c.3,0,.45.15.45.45v4.66c0,.3-.15.45-.45.45h-.11Z"/>
      <path class="cls-1" d="M143.04,41.16c-.15-.15-.23-.34-.23-.55v-2.95c0-.28-.16-.45-.44-.45-.3,0-.45-.15-.45-.45v-.11c0-.28.17-.45.45-.45s.44-.17.44-.45v-.58c0-.3.15-.45.45-.45h.12c.3,0,.45.15.45.45v.58c0,.3.15.45.45.45h.45c.3,0,.45.15.45.45v.11c0,.3-.15.45-.45.45h-.45c-.3,0-.45.15-.45.45v2.62c0,.3.15.45.45.45h.45c.3,0,.45.15.45.45v.12c0,.3-.15.45-.45.45h-.78c-.21,0-.41-.08-.55-.23l-.37-.37Z"/>
      <path class="cls-1" d="M146.43,41.77c-.3,0-.45-.15-.45-.45v-7.2c0-.3.15-.45.45-.45h.12c.3,0,.45.15.45.45v1.63c0,.3.15.45.45.45h1.04c.21,0,.4.08.55.22l.37.37c.15.15.22.34.22.55v3.97c0,.3-.15.45-.45.45h-.12c-.3,0-.45-.15-.45-.45v-3.64c0-.3-.15-.45-.45-.45h-.71c-.3,0-.45.15-.45.45v3.64c0,.3-.15.45-.45.45h-.12Z"/>
      <path class="cls-1" d="M153.37,41.53l-.36-.36c-.15-.15-.22-.34-.22-.55v-5.79c0-.21.08-.41.22-.55l.37-.37c.15-.15.34-.23.55-.23h2.17c.21,0,.39.08.55.24l.36.36c.15.15.22.34.22.55v1.43c0,.3-.15.45-.45.45h-.11c-.3,0-.45-.15-.45-.45v-1.1c0-.3-.15-.45-.45-.45h-1.52c-.3,0-.45.15-.45.45v5.13c0,.3.15.45.45.45h1.52c.3,0,.45-.15.45-.45v-1.19c0-.3-.15-.45-.45-.45h-.27c-.3,0-.45-.15-.45-.45v-.12c0-.3.15-.45.45-.45h1.28c.3,0,.45.15.45.45v2.54c.01.21-.07.41-.22.56l-.36.36c-.15.15-.34.23-.55.23h-2.17c-.22,0-.42-.08-.56-.23Z"/>
      <path class="cls-1" d="M158.82,41.75c-.3,0-.45-.15-.45-.45v-7.19c0-.3.15-.45.45-.45h.11c.3,0,.45.15.45.45v7.19c0,.3-.15.45-.45.45h-.11Z"/>
      <path class="cls-1" d="M161.1,41.53l-.37-.37c-.15-.15-.22-.34-.22-.55v-3.26c0-.21.08-.41.22-.55l.37-.37c.15-.15.34-.22.55-.22h1.39c.21,0,.41.08.55.22l.36.36c.15.16.22.35.22.56v3.26c.01.21-.07.41-.22.56l-.36.36c-.15.15-.34.23-.55.23h-1.39c-.21,0-.4-.08-.55-.23ZM161.53,40.28c0,.3.15.45.45.45h.73c.3,0,.45-.15.45-.45v-2.61c0-.3-.15-.45-.45-.45h-.73c-.3,0-.45.15-.45.45v2.61Z"/>
      <path class="cls-1" d="M165.76,41.73c-.3,0-.45-.15-.45-.45v-7.16c0-.3.15-.45.45-.45h.12c.3,0,.45.15.45.45v1.63c0,.3.15.45.45.45h1.04c.21,0,.4.08.55.22l.37.37c.15.15.22.34.22.55v3.24c0,.21-.08.41-.22.55l-.37.37c-.15.15-.34.23-.55.23h-2.06ZM166.33,40.26c0,.3.15.45.45.45h.71c.3,0,.45-.15.45-.45v-2.59c0-.3-.15-.45-.45-.45h-.71c-.3,0-.45.15-.45.45v2.59Z"/>
      <path class="cls-1" d="M170.69,41.52l-.37-.37c-.15-.15-.22-.34-.22-.55v-1.3c0-.23.07-.38.24-.55l.36-.36c.15-.15.34-.22.55-.22h1.07c.3,0,.45-.15.45-.45v-.03c0-.3-.15-.45-.45-.45h-1.73c-.3,0-.45-.15-.45-.45v-.12c0-.3.15-.45.45-.45h2.06c.21,0,.41.08.55.22l.37.37c.15.15.22.34.22.55v3.95c0,.3-.15.45-.45.45h-2.09c-.21,0-.4-.08-.55-.22ZM171.12,40.37c0,.3.15.45.45.45h.74c.3,0,.45-.15.45-.45v-.84c0-.3-.15-.45-.45-.45h-.74c-.3,0-.45.15-.45.45v.84Z"/>
      <path class="cls-1" d="M175.47,41.75c-.3,0-.45-.15-.45-.45v-7.19c0-.3.15-.45.45-.45h.11c.3,0,.45.15.45.45v7.19c0,.3-.15.45-.45.45h-.11Z"/>
      <path class="cls-1" d="M179.63,41.77c-.3,0-.45-.15-.45-.45v-7.17c0-.3.15-.45.45-.45h2.87c.21,0,.4.08.55.22l.36.36c.15.16.22.35.22.56v3.01c.01.21-.07.4-.22.56l-.36.36c-.15.15-.34.22-.55.22h-1.84c-.3,0-.45.15-.45.45v1.87c0,.3-.15.45-.45.45h-.12ZM180.22,37.53c0,.3.15.45.45.45h1.51c.3,0,.45-.15.45-.45v-2.36c0-.3-.15-.45-.45-.45h-1.51c-.3,0-.45.15-.45.45v2.36Z"/>
      <path class="cls-1" d="M185.24,41.51l-.36-.36c-.15-.15-.22-.34-.22-.55v-3.26c0-.21.08-.41.22-.55l.36-.36c.15-.15.34-.22.55-.22h1.38c.21,0,.41.08.55.22l.36.36c.15.15.22.34.22.55v1.88c0,.3-.15.45-.45.45h-1.73c-.3,0-.45.15-.45.45v.16c0,.3.15.45.45.45h1.73c.3,0,.45.15.45.45v.12c0,.3-.15.45-.45.45h-2.07c-.21,0-.39-.08-.55-.24ZM185.68,38.31c0,.3.15.45.45.45h.71c.3,0,.45-.15.45-.45v-.65c0-.3-.15-.45-.45-.45h-.71c-.3,0-.45.15-.45.45v.65Z"/>
      <path class="cls-1" d="M190,41.74c-.3,0-.45-.15-.45-.45v-3.95c0-.21.08-.41.22-.55l.37-.37c.15-.15.34-.22.55-.22h.27c.3,0,.45.15.45.45v.12c0,.3-.15.45-.45.45-.26,0-.39.17-.39.45v3.62c0,.3-.15.45-.45.45h-.12Z"/>
      <path class="cls-1" d="M192.69,41.53l-.37-.37c-.15-.15-.22-.34-.22-.55h0c0-.31.15-.46.45-.46h.12c.28,0,.45.11.45.29s.17.29.45.29h.72c.3,0,.45-.15.45-.45v-.34c0-.3-.15-.45-.45-.45h-1.06c-.22,0-.37-.07-.55-.21l-.34-.29c-.18-.15-.25-.32-.25-.55v-1.1c0-.22.07-.38.24-.55l.36-.36c.15-.15.34-.22.55-.22h1.37c.23,0,.42.08.56.22l.36.36c.15.15.22.34.22.55v.02c0,.3-.15.45-.45.45h-.12c-.28,0-.45-.11-.45-.3,0-.18-.17-.29-.45-.29h-.72c-.3,0-.45.15-.45.45v.46c0,.3.15.45.45.45h1.05c.21,0,.41.08.55.22l.37.37c.15.15.22.34.22.55v.89c0,.21-.08.41-.22.55l-.37.37c-.15.15-.34.23-.55.23h-1.37c-.21,0-.4-.08-.55-.23Z"/>
      <path class="cls-1" d="M197.45,44.06c-.3,0-.45-.15-.45-.45v-6.96c0-.3.15-.45.45-.45h2.07c.21,0,.41.08.55.22l.36.36c.15.15.23.34.23.55v3.1c.01.21-.07.41-.23.56l-.36.36c-.15.15-.34.22-.55.22h-1.05c-.3,0-.45.15-.45.45v1.57c0,.3-.15.45-.45.45h-.12ZM198.02,40.11c0,.3.15.45.45.45h.72c.3,0,.45-.15.45-.45v-2.45c0-.3-.15-.45-.45-.45h-.72c-.3,0-.45.15-.45.45v2.45Z"/>
      <path class="cls-1" d="M202.36,41.51l-.36-.36c-.15-.15-.22-.34-.22-.55v-3.26c0-.21.08-.41.22-.55l.36-.36c.15-.15.34-.22.55-.22h1.38c.21,0,.41.08.55.22l.36.36c.15.15.22.34.22.55v1.88c0,.3-.15.45-.45.45h-1.73c-.3,0-.45.15-.45.45v.16c0,.3.15.45.45.45h1.73c.3,0,.45.15.45.45v.12c0,.3-.15.45-.45.45h-2.07c-.21,0-.39-.08-.55-.24ZM202.8,38.31c0,.3.15.45.45.45h.71c.3,0,.45-.15.45-.45v-.65c0-.3-.15-.45-.45-.45h-.71c-.3,0-.45.15-.45.45v.65Z"/>
      <path class="cls-1" d="M207.16,41.52l-.37-.37c-.15-.15-.22-.34-.22-.55v-3.25c0-.21.08-.41.22-.55l.37-.37c.15-.15.34-.22.55-.22h2.06c.3,0,.45.15.45.45v.12c0,.3-.15.45-.45.45h-1.73c-.3,0-.45.15-.45.45v2.6c0,.3.15.45.45.45h1.73c.3,0,.45.15.45.45v.12c0,.3-.15.45-.45.45h-2.06c-.21,0-.4-.08-.55-.22Z"/>
      <path class="cls-1" d="M212,41.16c-.15-.15-.23-.34-.23-.55v-2.95c0-.28-.16-.45-.44-.45-.3,0-.45-.15-.45-.45v-.11c0-.28.17-.45.45-.45s.44-.17.44-.45v-.58c0-.3.15-.45.45-.45h.12c.3,0,.45.15.45.45v.58c0,.3.15.45.45.45h.45c.3,0,.45.15.45.45v.11c0,.3-.15.45-.45.45h-.45c-.3,0-.45.15-.45.45v2.62c0,.3.15.45.45.45h.45c.3,0,.45.15.45.45v.12c0,.3-.15.45-.45.45h-.78c-.21,0-.41-.08-.55-.23l-.37-.37Z"/>
      <path class="cls-1" d="M215.22,35.41c-.11-.11-.17-.22-.17-.35,0-.24.28-.52.52-.52s.52.28.52.52-.28.52-.52.52c-.12,0-.24-.06-.35-.17ZM215.51,41.75c-.3,0-.45-.15-.45-.45v-4.66c0-.3.15-.45.45-.45h.11c.3,0,.45.15.45.45v4.66c0,.3-.15.45-.45.45h-.11Z"/>
      <path class="cls-1" d="M217.98,41.35l-.87-4.67s-.01-.07-.01-.12c0-.24.16-.36.42-.36h.13c.28,0,.44.13.48.42l.6,3.7c.04.28.09.42.13.42s.09-.13.14-.42l.57-3.7c.04-.28.2-.42.48-.42h.13c.26,0,.42.12.42.36,0,.06,0,.09-.01.12l-.83,4.67c-.04.27-.21.41-.5.41h-.8c-.28,0-.44-.14-.49-.41Z"/>
      <path class="cls-1" d="M222.1,41.51l-.36-.36c-.15-.15-.22-.34-.22-.55v-3.26c0-.21.08-.41.22-.55l.36-.36c.15-.15.34-.22.55-.22h1.38c.21,0,.41.08.55.22l.36.36c.15.15.22.34.22.55v1.88c0,.3-.15.45-.45.45h-1.73c-.3,0-.45.15-.45.45v.16c0,.3.15.45.45.45h1.73c.3,0,.45.15.45.45v.12c0,.3-.15.45-.45.45h-2.07c-.21,0-.39-.08-.55-.24ZM222.54,38.31c0,.3.15.45.45.45h.71c.3,0,.45-.15.45-.45v-.65c0-.3-.15-.45-.45-.45h-.71c-.3,0-.45.15-.45.45v.65Z"/>
      <path class="cls-1" d="M226.89,41.53l-.37-.37c-.15-.15-.22-.34-.22-.55h0c0-.31.15-.46.45-.46h.12c.28,0,.45.11.45.29s.17.29.45.29h.72c.3,0,.45-.15.45-.45v-.34c0-.3-.15-.45-.45-.45h-1.06c-.22,0-.37-.07-.55-.21l-.34-.29c-.18-.15-.25-.32-.25-.55v-1.1c0-.22.07-.38.24-.55l.36-.36c.15-.15.34-.22.55-.22h1.37c.23,0,.42.08.56.22l.36.36c.15.15.22.34.22.55v.02c0,.3-.15.45-.45.45h-.12c-.28,0-.45-.11-.45-.3,0-.18-.17-.29-.45-.29h-.72c-.3,0-.45.15-.45.45v.46c0,.3.15.45.45.45h1.05c.21,0,.41.08.55.22l.37.37c.15.15.22.34.22.55v.89c0,.21-.08.41-.22.55l-.37.37c-.15.15-.34.23-.55.23h-1.37c-.21,0-.4-.08-.55-.23Z"/>
    </g>
  </g>
</svg>